G04 #@! TF.FileFunction,Copper,L1,Top,Signal*
%FSLAX46Y46*%
G04 Gerber Fmt 4.6, Leading zero omitted, Abs format (unit mm)*
G04 Created by KiCad (PCBNEW 4.0.5) date 01/13/17 18:23:13*
%MOMM*%
%LPD*%
G01*
G04 APERTURE LIST*
%ADD10C,0.100000*%
%ADD11R,2.032000X1.727200*%
%ADD12O,2.032000X1.727200*%
%ADD13R,1.800000X0.800000*%
%ADD14R,0.800000X1.800000*%
%ADD15R,1.727200X2.032000*%
%ADD16O,1.727200X2.032000*%
%ADD17C,0.600000*%
%ADD18C,0.508000*%
%ADD19C,0.250000*%
%ADD20C,0.254000*%
G04 APERTURE END LIST*
D10*
D11*
X142240000Y-104140000D03*
D12*
X142240000Y-106680000D03*
X142240000Y-109220000D03*
X142240000Y-111760000D03*
X142240000Y-114300000D03*
X142240000Y-116840000D03*
X142240000Y-119380000D03*
X142240000Y-121920000D03*
X142240000Y-124460000D03*
X142240000Y-127000000D03*
X142240000Y-129540000D03*
X142240000Y-132080000D03*
D13*
X148290000Y-104120000D03*
X148290000Y-105620000D03*
X148290000Y-107120000D03*
X148290000Y-108620000D03*
X148290000Y-110120000D03*
X148290000Y-111620000D03*
X148290000Y-113120000D03*
X148290000Y-114620000D03*
D14*
X150790000Y-116420000D03*
X152290000Y-116420000D03*
X153790000Y-116420000D03*
X155290000Y-116420000D03*
X156790000Y-116420000D03*
X158290000Y-116420000D03*
X159790000Y-116420000D03*
X161290000Y-116420000D03*
D13*
X163830000Y-114620000D03*
X163830000Y-113120000D03*
X163830000Y-111620000D03*
X163830000Y-110120000D03*
X163830000Y-108620000D03*
X163830000Y-107120000D03*
X163830000Y-105620000D03*
X163830000Y-104120000D03*
D15*
X151130000Y-132080000D03*
D16*
X153670000Y-132080000D03*
X156210000Y-132080000D03*
X158750000Y-132080000D03*
X161290000Y-132080000D03*
D11*
X170027600Y-104140000D03*
D12*
X170027600Y-106680000D03*
X170027600Y-109220000D03*
X170027600Y-111760000D03*
X170027600Y-114300000D03*
X170027600Y-116840000D03*
X170027600Y-119380000D03*
X170027600Y-121920000D03*
X170027600Y-124460000D03*
X170027600Y-127000000D03*
X170027600Y-129540000D03*
X170027600Y-132080000D03*
D17*
X156210000Y-110490000D03*
D18*
X163830000Y-104120000D02*
X170007600Y-104120000D01*
X170007600Y-104120000D02*
X170027600Y-104140000D01*
D19*
X163830000Y-104120000D02*
X163330000Y-104120000D01*
X170160000Y-104120000D02*
X170180000Y-104140000D01*
D20*
X163830000Y-105620000D02*
X168967600Y-105620000D01*
X168967600Y-105620000D02*
X170027600Y-106680000D01*
D19*
X163830000Y-105620000D02*
X163330000Y-105620000D01*
D18*
X142240000Y-104140000D02*
X143510000Y-104140000D01*
X143510000Y-104140000D02*
X143530000Y-104120000D01*
X148290000Y-104120000D02*
X143530000Y-104120000D01*
X156210000Y-110490000D02*
X149840000Y-104120000D01*
X149840000Y-104120000D02*
X148290000Y-104120000D01*
D19*
X148290000Y-104120000D02*
X148790000Y-104120000D01*
D20*
X163830000Y-110120000D02*
X165847600Y-110120000D01*
X165847600Y-110120000D02*
X170027600Y-114300000D01*
D19*
X170027600Y-114300000D02*
X170180000Y-114300000D01*
D20*
X163830000Y-111620000D02*
X164655200Y-111620000D01*
X169875200Y-116840000D02*
X170027600Y-116840000D01*
X164655200Y-111620000D02*
X169875200Y-116840000D01*
D19*
X170027600Y-116840000D02*
X170180000Y-116840000D01*
D20*
X148290000Y-105620000D02*
X143300000Y-105620000D01*
X143300000Y-105620000D02*
X142240000Y-106680000D01*
X148290000Y-107120000D02*
X144340000Y-107120000D01*
X144340000Y-107120000D02*
X143510000Y-107950000D01*
X142392400Y-109220000D02*
X142240000Y-109220000D01*
X143510000Y-107950000D02*
X143510000Y-108102400D01*
X143510000Y-108102400D02*
X142392400Y-109220000D01*
X148290000Y-108620000D02*
X145380000Y-108620000D01*
X145380000Y-108620000D02*
X143510000Y-110490000D01*
X143510000Y-110490000D02*
X143510000Y-110642400D01*
X143510000Y-110642400D02*
X142392400Y-111760000D01*
X142392400Y-111760000D02*
X142240000Y-111760000D01*
X148290000Y-110120000D02*
X146420000Y-110120000D01*
X146420000Y-110120000D02*
X143510000Y-113030000D01*
X143510000Y-113182400D02*
X142392400Y-114300000D01*
X143510000Y-113030000D02*
X143510000Y-113182400D01*
X142392400Y-114300000D02*
X142240000Y-114300000D01*
X148290000Y-110120000D02*
X147790000Y-110120000D01*
X148290000Y-111620000D02*
X147790000Y-111620000D01*
X147790000Y-111620000D02*
X142570000Y-116840000D01*
X142570000Y-116840000D02*
X142240000Y-116840000D01*
X148290000Y-111620000D02*
X147901398Y-111620000D01*
X144780000Y-116840000D02*
X144780000Y-116130000D01*
X147790000Y-113120000D02*
X148290000Y-113120000D01*
X144780000Y-116130000D02*
X147790000Y-113120000D01*
X143510000Y-118110000D02*
X144780000Y-116840000D01*
X143510000Y-118262400D02*
X143510000Y-118110000D01*
X148290000Y-113120000D02*
X147796176Y-113120000D01*
X143510000Y-118262400D02*
X142392400Y-119380000D01*
X142392400Y-119380000D02*
X142240000Y-119380000D01*
X148290000Y-114620000D02*
X148290000Y-116022400D01*
X148290000Y-116022400D02*
X142392400Y-121920000D01*
X142392400Y-121920000D02*
X142240000Y-121920000D01*
X150790000Y-116420000D02*
X150790000Y-116920000D01*
X150790000Y-116920000D02*
X143250000Y-124460000D01*
X143250000Y-124460000D02*
X142240000Y-124460000D01*
X152290000Y-116420000D02*
X152290000Y-117102400D01*
X152290000Y-117102400D02*
X142392400Y-127000000D01*
X142392400Y-127000000D02*
X142240000Y-127000000D01*
X153790000Y-116420000D02*
X153790000Y-118142400D01*
X153790000Y-118142400D02*
X142392400Y-129540000D01*
X142392400Y-129540000D02*
X142240000Y-129540000D01*
X155290000Y-116420000D02*
X155290000Y-119182400D01*
X155290000Y-119182400D02*
X142392400Y-132080000D01*
X142392400Y-132080000D02*
X142240000Y-132080000D01*
X163830000Y-107120000D02*
X167927600Y-107120000D01*
X167927600Y-107120000D02*
X168757600Y-107950000D01*
X168757600Y-107950000D02*
X168757600Y-108102400D01*
X168757600Y-108102400D02*
X169875200Y-109220000D01*
X169875200Y-109220000D02*
X170027600Y-109220000D01*
D19*
X170027600Y-109220000D02*
X170180000Y-109220000D01*
D20*
X163830000Y-108620000D02*
X166887600Y-108620000D01*
X166887600Y-108620000D02*
X168757600Y-110490000D01*
X168757600Y-110490000D02*
X168757600Y-110642400D01*
X168757600Y-110642400D02*
X169875200Y-111760000D01*
X169875200Y-111760000D02*
X170027600Y-111760000D01*
D19*
X170027600Y-111760000D02*
X170180000Y-111760000D01*
D20*
X163830000Y-113120000D02*
X164471424Y-113120000D01*
X164471424Y-113120000D02*
X168757600Y-117406176D01*
X168757600Y-117406176D02*
X168757600Y-118262400D01*
X168757600Y-118262400D02*
X169875200Y-119380000D01*
X169875200Y-119380000D02*
X170027600Y-119380000D01*
D19*
X163830000Y-113120000D02*
X164626652Y-113120000D01*
X170027600Y-119380000D02*
X170180000Y-119380000D01*
D20*
X163830000Y-114620000D02*
X163830000Y-115874800D01*
X163830000Y-115874800D02*
X169875200Y-121920000D01*
X169875200Y-121920000D02*
X170027600Y-121920000D01*
D19*
X170027600Y-121920000D02*
X170180000Y-121920000D01*
D20*
X161290000Y-116420000D02*
X161987600Y-116420000D01*
X161987600Y-116420000D02*
X168757600Y-123190000D01*
X168757600Y-123190000D02*
X168757600Y-123342400D01*
X168757600Y-123342400D02*
X169875200Y-124460000D01*
X169875200Y-124460000D02*
X170027600Y-124460000D01*
D19*
X170027600Y-124460000D02*
X170180000Y-124460000D01*
D20*
X159790000Y-116420000D02*
X159790000Y-116920000D01*
X159790000Y-116920000D02*
X169870000Y-127000000D01*
X169870000Y-127000000D02*
X170027600Y-127000000D01*
D19*
X169870000Y-127000000D02*
X169984998Y-127000000D01*
X169984998Y-127000000D02*
X170180000Y-127000000D01*
D20*
X158290000Y-116420000D02*
X158290000Y-117954800D01*
X158290000Y-117954800D02*
X169875200Y-129540000D01*
X169875200Y-129540000D02*
X170027600Y-129540000D01*
D19*
X170027600Y-129540000D02*
X170180000Y-129540000D01*
D20*
X156790000Y-116420000D02*
X156790000Y-118994800D01*
X156790000Y-118994800D02*
X169875200Y-132080000D01*
X169875200Y-132080000D02*
X170027600Y-132080000D01*
D19*
X170027600Y-132080000D02*
X170180000Y-132080000D01*
M02*
