M48
;DRILL file {KiCad 4.0.5} date 01/13/17 18:23:38
;FORMAT={-:-/ absolute / inch / decimal}
FMAT,2
INCH,TZ
T1C0.016
T2C0.040
%
G90
G05
M72
T1
X6.15Y-4.35
T2
X5.6Y-4.1
X5.6Y-4.2
X5.6Y-4.3
X5.6Y-4.4
X5.6Y-4.5
X5.6Y-4.6
X5.6Y-4.7
X5.6Y-4.8
X5.6Y-4.9
X5.6Y-5.
X5.6Y-5.1
X5.6Y-5.2
X5.95Y-5.2
X6.05Y-5.2
X6.15Y-5.2
X6.25Y-5.2
X6.35Y-5.2
X6.694Y-4.1
X6.694Y-4.2
X6.694Y-4.3
X6.694Y-4.4
X6.694Y-4.5
X6.694Y-4.6
X6.694Y-4.7
X6.694Y-4.8
X6.694Y-4.9
X6.694Y-5.
X6.694Y-5.1
X6.694Y-5.2
T0
M30
