G04 #@! TF.FileFunction,Legend,Top*
%FSLAX46Y46*%
G04 Gerber Fmt 4.6, Leading zero omitted, Abs format (unit mm)*
G04 Created by KiCad (PCBNEW 4.0.5) date 02/14/17 20:50:27*
%MOMM*%
%LPD*%
G01*
G04 APERTURE LIST*
%ADD10C,0.100000*%
%ADD11C,0.250000*%
%ADD12C,0.300000*%
%ADD13C,0.127000*%
%ADD14C,0.150000*%
%ADD15C,0.010000*%
G04 APERTURE END LIST*
D10*
D11*
X162730714Y-122525953D02*
X162668810Y-122587858D01*
X162606905Y-122525953D01*
X162668810Y-122464048D01*
X162730714Y-122525953D01*
X162606905Y-122525953D01*
X162668810Y-123702144D02*
X162606905Y-123578334D01*
X162606905Y-123330715D01*
X162668810Y-123206906D01*
X162730714Y-123145001D01*
X162854524Y-123083096D01*
X163225952Y-123083096D01*
X163349762Y-123145001D01*
X163411667Y-123206906D01*
X163473571Y-123330715D01*
X163473571Y-123578334D01*
X163411667Y-123702144D01*
X162606905Y-124445001D02*
X162668810Y-124321192D01*
X162730714Y-124259287D01*
X162854524Y-124197382D01*
X163225952Y-124197382D01*
X163349762Y-124259287D01*
X163411667Y-124321192D01*
X163473571Y-124445001D01*
X163473571Y-124630715D01*
X163411667Y-124754525D01*
X163349762Y-124816430D01*
X163225952Y-124878334D01*
X162854524Y-124878334D01*
X162730714Y-124816430D01*
X162668810Y-124754525D01*
X162606905Y-124630715D01*
X162606905Y-124445001D01*
X162730714Y-125435477D02*
X162668810Y-125497382D01*
X162606905Y-125435477D01*
X162668810Y-125373572D01*
X162730714Y-125435477D01*
X162606905Y-125435477D01*
X163473571Y-126611668D02*
X162606905Y-126611668D01*
X163473571Y-126054525D02*
X162792619Y-126054525D01*
X162668810Y-126116430D01*
X162606905Y-126240239D01*
X162606905Y-126425953D01*
X162668810Y-126549763D01*
X162730714Y-126611668D01*
X162606905Y-127230715D02*
X163906905Y-127230715D01*
X163102143Y-127354524D02*
X162606905Y-127725953D01*
X163473571Y-127725953D02*
X162978333Y-127230715D01*
D12*
X153677857Y-123633571D02*
X153963571Y-123633571D01*
X154106429Y-123705000D01*
X154249286Y-123847857D01*
X154320714Y-124133571D01*
X154320714Y-124633571D01*
X154249286Y-124919286D01*
X154106429Y-125062143D01*
X153963571Y-125133571D01*
X153677857Y-125133571D01*
X153535000Y-125062143D01*
X153392143Y-124919286D01*
X153320714Y-124633571D01*
X153320714Y-124133571D01*
X153392143Y-123847857D01*
X153535000Y-123705000D01*
X153677857Y-123633571D01*
X155820715Y-125133571D02*
X155320715Y-124419286D01*
X154963572Y-125133571D02*
X154963572Y-123633571D01*
X155535000Y-123633571D01*
X155677858Y-123705000D01*
X155749286Y-123776429D01*
X155820715Y-123919286D01*
X155820715Y-124133571D01*
X155749286Y-124276429D01*
X155677858Y-124347857D01*
X155535000Y-124419286D01*
X154963572Y-124419286D01*
X156463572Y-125133571D02*
X156463572Y-123633571D01*
X157463572Y-123633571D02*
X157749286Y-123633571D01*
X157892144Y-123705000D01*
X158035001Y-123847857D01*
X158106429Y-124133571D01*
X158106429Y-124633571D01*
X158035001Y-124919286D01*
X157892144Y-125062143D01*
X157749286Y-125133571D01*
X157463572Y-125133571D01*
X157320715Y-125062143D01*
X157177858Y-124919286D01*
X157106429Y-124633571D01*
X157106429Y-124133571D01*
X157177858Y-123847857D01*
X157320715Y-123705000D01*
X157463572Y-123633571D01*
X158749287Y-125133571D02*
X158749287Y-123633571D01*
X159606430Y-125133571D01*
X159606430Y-123633571D01*
X154249286Y-127683571D02*
X153749286Y-126969286D01*
X153392143Y-127683571D02*
X153392143Y-126183571D01*
X153963571Y-126183571D01*
X154106429Y-126255000D01*
X154177857Y-126326429D01*
X154249286Y-126469286D01*
X154249286Y-126683571D01*
X154177857Y-126826429D01*
X154106429Y-126897857D01*
X153963571Y-126969286D01*
X153392143Y-126969286D01*
X155177857Y-126183571D02*
X155463571Y-126183571D01*
X155606429Y-126255000D01*
X155749286Y-126397857D01*
X155820714Y-126683571D01*
X155820714Y-127183571D01*
X155749286Y-127469286D01*
X155606429Y-127612143D01*
X155463571Y-127683571D01*
X155177857Y-127683571D01*
X155035000Y-127612143D01*
X154892143Y-127469286D01*
X154820714Y-127183571D01*
X154820714Y-126683571D01*
X154892143Y-126397857D01*
X155035000Y-126255000D01*
X155177857Y-126183571D01*
X156963572Y-126897857D02*
X157177858Y-126969286D01*
X157249286Y-127040714D01*
X157320715Y-127183571D01*
X157320715Y-127397857D01*
X157249286Y-127540714D01*
X157177858Y-127612143D01*
X157035000Y-127683571D01*
X156463572Y-127683571D01*
X156463572Y-126183571D01*
X156963572Y-126183571D01*
X157106429Y-126255000D01*
X157177858Y-126326429D01*
X157249286Y-126469286D01*
X157249286Y-126612143D01*
X157177858Y-126755000D01*
X157106429Y-126826429D01*
X156963572Y-126897857D01*
X156463572Y-126897857D01*
X158249286Y-126183571D02*
X158535000Y-126183571D01*
X158677858Y-126255000D01*
X158820715Y-126397857D01*
X158892143Y-126683571D01*
X158892143Y-127183571D01*
X158820715Y-127469286D01*
X158677858Y-127612143D01*
X158535000Y-127683571D01*
X158249286Y-127683571D01*
X158106429Y-127612143D01*
X157963572Y-127469286D01*
X157892143Y-127183571D01*
X157892143Y-126683571D01*
X157963572Y-126397857D01*
X158106429Y-126255000D01*
X158249286Y-126183571D01*
X159320715Y-126183571D02*
X160177858Y-126183571D01*
X159749287Y-127683571D02*
X159749287Y-126183571D01*
X160606429Y-127612143D02*
X160820715Y-127683571D01*
X161177858Y-127683571D01*
X161320715Y-127612143D01*
X161392144Y-127540714D01*
X161463572Y-127397857D01*
X161463572Y-127255000D01*
X161392144Y-127112143D01*
X161320715Y-127040714D01*
X161177858Y-126969286D01*
X160892144Y-126897857D01*
X160749286Y-126826429D01*
X160677858Y-126755000D01*
X160606429Y-126612143D01*
X160606429Y-126469286D01*
X160677858Y-126326429D01*
X160749286Y-126255000D01*
X160892144Y-126183571D01*
X161249286Y-126183571D01*
X161463572Y-126255000D01*
X141367144Y-98738571D02*
X141724287Y-99738571D01*
X142081429Y-98738571D01*
X142938572Y-98238571D02*
X143081429Y-98238571D01*
X143224286Y-98310000D01*
X143295715Y-98381429D01*
X143367144Y-98524286D01*
X143438572Y-98810000D01*
X143438572Y-99167143D01*
X143367144Y-99452857D01*
X143295715Y-99595714D01*
X143224286Y-99667143D01*
X143081429Y-99738571D01*
X142938572Y-99738571D01*
X142795715Y-99667143D01*
X142724286Y-99595714D01*
X142652858Y-99452857D01*
X142581429Y-99167143D01*
X142581429Y-98810000D01*
X142652858Y-98524286D01*
X142724286Y-98381429D01*
X142795715Y-98310000D01*
X142938572Y-98238571D01*
X144081429Y-99595714D02*
X144152857Y-99667143D01*
X144081429Y-99738571D01*
X144010000Y-99667143D01*
X144081429Y-99595714D01*
X144081429Y-99738571D01*
X144724286Y-98381429D02*
X144795715Y-98310000D01*
X144938572Y-98238571D01*
X145295715Y-98238571D01*
X145438572Y-98310000D01*
X145510001Y-98381429D01*
X145581429Y-98524286D01*
X145581429Y-98667143D01*
X145510001Y-98881429D01*
X144652858Y-99738571D01*
X145581429Y-99738571D01*
D13*
X150749000Y-129485572D02*
X150712714Y-129558143D01*
X150712714Y-129667000D01*
X150749000Y-129775857D01*
X150821571Y-129848429D01*
X150894143Y-129884714D01*
X151039286Y-129921000D01*
X151148143Y-129921000D01*
X151293286Y-129884714D01*
X151365857Y-129848429D01*
X151438429Y-129775857D01*
X151474714Y-129667000D01*
X151474714Y-129594429D01*
X151438429Y-129485572D01*
X151402143Y-129449286D01*
X151148143Y-129449286D01*
X151148143Y-129594429D01*
X151474714Y-129122714D02*
X150712714Y-129122714D01*
X151474714Y-128687286D01*
X150712714Y-128687286D01*
X151474714Y-128324428D02*
X150712714Y-128324428D01*
X150712714Y-128143000D01*
X150749000Y-128034143D01*
X150821571Y-127961571D01*
X150894143Y-127925286D01*
X151039286Y-127889000D01*
X151148143Y-127889000D01*
X151293286Y-127925286D01*
X151365857Y-127961571D01*
X151438429Y-128034143D01*
X151474714Y-128143000D01*
X151474714Y-128324428D01*
X154014714Y-129322285D02*
X153651857Y-129576285D01*
X154014714Y-129757713D02*
X153252714Y-129757713D01*
X153252714Y-129467428D01*
X153289000Y-129394856D01*
X153325286Y-129358571D01*
X153397857Y-129322285D01*
X153506714Y-129322285D01*
X153579286Y-129358571D01*
X153615571Y-129394856D01*
X153651857Y-129467428D01*
X153651857Y-129757713D01*
X153978429Y-129031999D02*
X154014714Y-128923142D01*
X154014714Y-128741713D01*
X153978429Y-128669142D01*
X153942143Y-128632856D01*
X153869571Y-128596571D01*
X153797000Y-128596571D01*
X153724429Y-128632856D01*
X153688143Y-128669142D01*
X153651857Y-128741713D01*
X153615571Y-128886856D01*
X153579286Y-128959428D01*
X153543000Y-128995713D01*
X153470429Y-129031999D01*
X153397857Y-129031999D01*
X153325286Y-128995713D01*
X153289000Y-128959428D01*
X153252714Y-128886856D01*
X153252714Y-128705428D01*
X153289000Y-128596571D01*
X153252714Y-128378857D02*
X153252714Y-127943428D01*
X154014714Y-128161142D02*
X153252714Y-128161142D01*
X159094714Y-129032000D02*
X158731857Y-129286000D01*
X159094714Y-129467428D02*
X158332714Y-129467428D01*
X158332714Y-129177143D01*
X158369000Y-129104571D01*
X158405286Y-129068286D01*
X158477857Y-129032000D01*
X158586714Y-129032000D01*
X158659286Y-129068286D01*
X158695571Y-129104571D01*
X158731857Y-129177143D01*
X158731857Y-129467428D01*
X158332714Y-128778000D02*
X159094714Y-128270000D01*
X158332714Y-128270000D02*
X159094714Y-128778000D01*
X155792714Y-129848428D02*
X155792714Y-129376714D01*
X156083000Y-129630714D01*
X156083000Y-129521856D01*
X156119286Y-129449285D01*
X156155571Y-129412999D01*
X156228143Y-129376714D01*
X156409571Y-129376714D01*
X156482143Y-129412999D01*
X156518429Y-129449285D01*
X156554714Y-129521856D01*
X156554714Y-129739571D01*
X156518429Y-129812142D01*
X156482143Y-129848428D01*
X155792714Y-129159000D02*
X156554714Y-128905000D01*
X155792714Y-128651000D01*
X155792714Y-128469571D02*
X155792714Y-127997857D01*
X156083000Y-128251857D01*
X156083000Y-128142999D01*
X156119286Y-128070428D01*
X156155571Y-128034142D01*
X156228143Y-127997857D01*
X156409571Y-127997857D01*
X156482143Y-128034142D01*
X156518429Y-128070428D01*
X156554714Y-128142999D01*
X156554714Y-128360714D01*
X156518429Y-128433285D01*
X156482143Y-128469571D01*
X160872714Y-129485571D02*
X160872714Y-129050142D01*
X161634714Y-129267856D02*
X160872714Y-129267856D01*
X160872714Y-128868714D02*
X161634714Y-128360714D01*
X160872714Y-128360714D02*
X161634714Y-128868714D01*
X144489715Y-124804714D02*
X144489715Y-124042714D01*
X144780000Y-124042714D01*
X144852572Y-124079000D01*
X144888857Y-124115286D01*
X144925143Y-124187857D01*
X144925143Y-124296714D01*
X144888857Y-124369286D01*
X144852572Y-124405571D01*
X144780000Y-124441857D01*
X144489715Y-124441857D01*
X145650857Y-124804714D02*
X145215429Y-124804714D01*
X145433143Y-124804714D02*
X145433143Y-124042714D01*
X145360572Y-124151571D01*
X145288000Y-124224143D01*
X145215429Y-124260429D01*
X145904857Y-124042714D02*
X146376571Y-124042714D01*
X146122571Y-124333000D01*
X146231429Y-124333000D01*
X146304000Y-124369286D01*
X146340286Y-124405571D01*
X146376571Y-124478143D01*
X146376571Y-124659571D01*
X146340286Y-124732143D01*
X146304000Y-124768429D01*
X146231429Y-124804714D01*
X146013714Y-124804714D01*
X145941143Y-124768429D01*
X145904857Y-124732143D01*
X144435286Y-129848429D02*
X144544143Y-129884714D01*
X144725572Y-129884714D01*
X144798143Y-129848429D01*
X144834429Y-129812143D01*
X144870714Y-129739571D01*
X144870714Y-129667000D01*
X144834429Y-129594429D01*
X144798143Y-129558143D01*
X144725572Y-129521857D01*
X144580429Y-129485571D01*
X144507857Y-129449286D01*
X144471572Y-129413000D01*
X144435286Y-129340429D01*
X144435286Y-129267857D01*
X144471572Y-129195286D01*
X144507857Y-129159000D01*
X144580429Y-129122714D01*
X144761857Y-129122714D01*
X144870714Y-129159000D01*
X145632714Y-129812143D02*
X145596428Y-129848429D01*
X145487571Y-129884714D01*
X145415000Y-129884714D01*
X145306143Y-129848429D01*
X145233571Y-129775857D01*
X145197286Y-129703286D01*
X145161000Y-129558143D01*
X145161000Y-129449286D01*
X145197286Y-129304143D01*
X145233571Y-129231571D01*
X145306143Y-129159000D01*
X145415000Y-129122714D01*
X145487571Y-129122714D01*
X145596428Y-129159000D01*
X145632714Y-129195286D01*
X145959286Y-129884714D02*
X145959286Y-129122714D01*
X146394714Y-129884714D02*
X146068143Y-129449286D01*
X146394714Y-129122714D02*
X145959286Y-129558143D01*
X144489715Y-127344714D02*
X144489715Y-126582714D01*
X144780000Y-126582714D01*
X144852572Y-126619000D01*
X144888857Y-126655286D01*
X144925143Y-126727857D01*
X144925143Y-126836714D01*
X144888857Y-126909286D01*
X144852572Y-126945571D01*
X144780000Y-126981857D01*
X144489715Y-126981857D01*
X145650857Y-127344714D02*
X145215429Y-127344714D01*
X145433143Y-127344714D02*
X145433143Y-126582714D01*
X145360572Y-126691571D01*
X145288000Y-126764143D01*
X145215429Y-126800429D01*
X146340286Y-126582714D02*
X145977429Y-126582714D01*
X145941143Y-126945571D01*
X145977429Y-126909286D01*
X146050000Y-126873000D01*
X146231429Y-126873000D01*
X146304000Y-126909286D01*
X146340286Y-126945571D01*
X146376571Y-127018143D01*
X146376571Y-127199571D01*
X146340286Y-127272143D01*
X146304000Y-127308429D01*
X146231429Y-127344714D01*
X146050000Y-127344714D01*
X145977429Y-127308429D01*
X145941143Y-127272143D01*
X144489715Y-132388429D02*
X144598572Y-132424714D01*
X144780001Y-132424714D01*
X144852572Y-132388429D01*
X144888858Y-132352143D01*
X144925143Y-132279571D01*
X144925143Y-132207000D01*
X144888858Y-132134429D01*
X144852572Y-132098143D01*
X144780001Y-132061857D01*
X144634858Y-132025571D01*
X144562286Y-131989286D01*
X144526001Y-131953000D01*
X144489715Y-131880429D01*
X144489715Y-131807857D01*
X144526001Y-131735286D01*
X144562286Y-131699000D01*
X144634858Y-131662714D01*
X144816286Y-131662714D01*
X144925143Y-131699000D01*
X145251715Y-132424714D02*
X145251715Y-131662714D01*
X145433143Y-131662714D01*
X145542000Y-131699000D01*
X145614572Y-131771571D01*
X145650857Y-131844143D01*
X145687143Y-131989286D01*
X145687143Y-132098143D01*
X145650857Y-132243286D01*
X145614572Y-132315857D01*
X145542000Y-132388429D01*
X145433143Y-132424714D01*
X145251715Y-132424714D01*
X145977429Y-132207000D02*
X146340286Y-132207000D01*
X145904857Y-132424714D02*
X146158857Y-131662714D01*
X146412857Y-132424714D01*
X144489715Y-114644714D02*
X144489715Y-113882714D01*
X144780000Y-113882714D01*
X144852572Y-113919000D01*
X144888857Y-113955286D01*
X144925143Y-114027857D01*
X144925143Y-114136714D01*
X144888857Y-114209286D01*
X144852572Y-114245571D01*
X144780000Y-114281857D01*
X144489715Y-114281857D01*
X145650857Y-114644714D02*
X145215429Y-114644714D01*
X145433143Y-114644714D02*
X145433143Y-113882714D01*
X145360572Y-113991571D01*
X145288000Y-114064143D01*
X145215429Y-114100429D01*
X145904857Y-113882714D02*
X146412857Y-113882714D01*
X146086286Y-114644714D01*
X144489715Y-119724714D02*
X144489715Y-118962714D01*
X144780000Y-118962714D01*
X144852572Y-118999000D01*
X144888857Y-119035286D01*
X144925143Y-119107857D01*
X144925143Y-119216714D01*
X144888857Y-119289286D01*
X144852572Y-119325571D01*
X144780000Y-119361857D01*
X144489715Y-119361857D01*
X145650857Y-119724714D02*
X145215429Y-119724714D01*
X145433143Y-119724714D02*
X145433143Y-118962714D01*
X145360572Y-119071571D01*
X145288000Y-119144143D01*
X145215429Y-119180429D01*
X146376571Y-119724714D02*
X145941143Y-119724714D01*
X146158857Y-119724714D02*
X146158857Y-118962714D01*
X146086286Y-119071571D01*
X146013714Y-119144143D01*
X145941143Y-119180429D01*
X144489715Y-122264714D02*
X144489715Y-121502714D01*
X144780000Y-121502714D01*
X144852572Y-121539000D01*
X144888857Y-121575286D01*
X144925143Y-121647857D01*
X144925143Y-121756714D01*
X144888857Y-121829286D01*
X144852572Y-121865571D01*
X144780000Y-121901857D01*
X144489715Y-121901857D01*
X145650857Y-122264714D02*
X145215429Y-122264714D01*
X145433143Y-122264714D02*
X145433143Y-121502714D01*
X145360572Y-121611571D01*
X145288000Y-121684143D01*
X145215429Y-121720429D01*
X145941143Y-121575286D02*
X145977429Y-121539000D01*
X146050000Y-121502714D01*
X146231429Y-121502714D01*
X146304000Y-121539000D01*
X146340286Y-121575286D01*
X146376571Y-121647857D01*
X146376571Y-121720429D01*
X146340286Y-121829286D01*
X145904857Y-122264714D01*
X146376571Y-122264714D01*
X144489715Y-117184714D02*
X144489715Y-116422714D01*
X144780000Y-116422714D01*
X144852572Y-116459000D01*
X144888857Y-116495286D01*
X144925143Y-116567857D01*
X144925143Y-116676714D01*
X144888857Y-116749286D01*
X144852572Y-116785571D01*
X144780000Y-116821857D01*
X144489715Y-116821857D01*
X145650857Y-117184714D02*
X145215429Y-117184714D01*
X145433143Y-117184714D02*
X145433143Y-116422714D01*
X145360572Y-116531571D01*
X145288000Y-116604143D01*
X145215429Y-116640429D01*
X146304000Y-116422714D02*
X146158857Y-116422714D01*
X146086286Y-116459000D01*
X146050000Y-116495286D01*
X145977429Y-116604143D01*
X145941143Y-116749286D01*
X145941143Y-117039571D01*
X145977429Y-117112143D01*
X146013714Y-117148429D01*
X146086286Y-117184714D01*
X146231429Y-117184714D01*
X146304000Y-117148429D01*
X146340286Y-117112143D01*
X146376571Y-117039571D01*
X146376571Y-116858143D01*
X146340286Y-116785571D01*
X146304000Y-116749286D01*
X146231429Y-116713000D01*
X146086286Y-116713000D01*
X146013714Y-116749286D01*
X145977429Y-116785571D01*
X145941143Y-116858143D01*
X144471572Y-103722714D02*
X144943286Y-103722714D01*
X144689286Y-104013000D01*
X144798144Y-104013000D01*
X144870715Y-104049286D01*
X144907001Y-104085571D01*
X144943286Y-104158143D01*
X144943286Y-104339571D01*
X144907001Y-104412143D01*
X144870715Y-104448429D01*
X144798144Y-104484714D01*
X144580429Y-104484714D01*
X144507858Y-104448429D01*
X144471572Y-104412143D01*
X145161000Y-103722714D02*
X145415000Y-104484714D01*
X145669000Y-103722714D01*
X145850429Y-103722714D02*
X146322143Y-103722714D01*
X146068143Y-104013000D01*
X146177001Y-104013000D01*
X146249572Y-104049286D01*
X146285858Y-104085571D01*
X146322143Y-104158143D01*
X146322143Y-104339571D01*
X146285858Y-104412143D01*
X146249572Y-104448429D01*
X146177001Y-104484714D01*
X145959286Y-104484714D01*
X145886715Y-104448429D01*
X145850429Y-104412143D01*
X144489715Y-109564714D02*
X144489715Y-108802714D01*
X144780000Y-108802714D01*
X144852572Y-108839000D01*
X144888857Y-108875286D01*
X144925143Y-108947857D01*
X144925143Y-109056714D01*
X144888857Y-109129286D01*
X144852572Y-109165571D01*
X144780000Y-109201857D01*
X144489715Y-109201857D01*
X145215429Y-108875286D02*
X145251715Y-108839000D01*
X145324286Y-108802714D01*
X145505715Y-108802714D01*
X145578286Y-108839000D01*
X145614572Y-108875286D01*
X145650857Y-108947857D01*
X145650857Y-109020429D01*
X145614572Y-109129286D01*
X145179143Y-109564714D01*
X145650857Y-109564714D01*
X146376571Y-109564714D02*
X145941143Y-109564714D01*
X146158857Y-109564714D02*
X146158857Y-108802714D01*
X146086286Y-108911571D01*
X146013714Y-108984143D01*
X145941143Y-109020429D01*
X144489715Y-112104714D02*
X144489715Y-111342714D01*
X144780000Y-111342714D01*
X144852572Y-111379000D01*
X144888857Y-111415286D01*
X144925143Y-111487857D01*
X144925143Y-111596714D01*
X144888857Y-111669286D01*
X144852572Y-111705571D01*
X144780000Y-111741857D01*
X144489715Y-111741857D01*
X145215429Y-111415286D02*
X145251715Y-111379000D01*
X145324286Y-111342714D01*
X145505715Y-111342714D01*
X145578286Y-111379000D01*
X145614572Y-111415286D01*
X145650857Y-111487857D01*
X145650857Y-111560429D01*
X145614572Y-111669286D01*
X145179143Y-112104714D01*
X145650857Y-112104714D01*
X146122571Y-111342714D02*
X146195143Y-111342714D01*
X146267714Y-111379000D01*
X146304000Y-111415286D01*
X146340286Y-111487857D01*
X146376571Y-111633000D01*
X146376571Y-111814429D01*
X146340286Y-111959571D01*
X146304000Y-112032143D01*
X146267714Y-112068429D01*
X146195143Y-112104714D01*
X146122571Y-112104714D01*
X146050000Y-112068429D01*
X146013714Y-112032143D01*
X145977429Y-111959571D01*
X145941143Y-111814429D01*
X145941143Y-111633000D01*
X145977429Y-111487857D01*
X146013714Y-111415286D01*
X146050000Y-111379000D01*
X146122571Y-111342714D01*
X144489715Y-107024714D02*
X144489715Y-106262714D01*
X144780000Y-106262714D01*
X144852572Y-106299000D01*
X144888857Y-106335286D01*
X144925143Y-106407857D01*
X144925143Y-106516714D01*
X144888857Y-106589286D01*
X144852572Y-106625571D01*
X144780000Y-106661857D01*
X144489715Y-106661857D01*
X145215429Y-106335286D02*
X145251715Y-106299000D01*
X145324286Y-106262714D01*
X145505715Y-106262714D01*
X145578286Y-106299000D01*
X145614572Y-106335286D01*
X145650857Y-106407857D01*
X145650857Y-106480429D01*
X145614572Y-106589286D01*
X145179143Y-107024714D01*
X145650857Y-107024714D01*
X145941143Y-106335286D02*
X145977429Y-106299000D01*
X146050000Y-106262714D01*
X146231429Y-106262714D01*
X146304000Y-106299000D01*
X146340286Y-106335286D01*
X146376571Y-106407857D01*
X146376571Y-106480429D01*
X146340286Y-106589286D01*
X145904857Y-107024714D01*
X146376571Y-107024714D01*
X166079715Y-124804714D02*
X166079715Y-124042714D01*
X166370000Y-124042714D01*
X166442572Y-124079000D01*
X166478857Y-124115286D01*
X166515143Y-124187857D01*
X166515143Y-124296714D01*
X166478857Y-124369286D01*
X166442572Y-124405571D01*
X166370000Y-124441857D01*
X166079715Y-124441857D01*
X166986857Y-124042714D02*
X167059429Y-124042714D01*
X167132000Y-124079000D01*
X167168286Y-124115286D01*
X167204572Y-124187857D01*
X167240857Y-124333000D01*
X167240857Y-124514429D01*
X167204572Y-124659571D01*
X167168286Y-124732143D01*
X167132000Y-124768429D01*
X167059429Y-124804714D01*
X166986857Y-124804714D01*
X166914286Y-124768429D01*
X166878000Y-124732143D01*
X166841715Y-124659571D01*
X166805429Y-124514429D01*
X166805429Y-124333000D01*
X166841715Y-124187857D01*
X166878000Y-124115286D01*
X166914286Y-124079000D01*
X166986857Y-124042714D01*
X167894000Y-124042714D02*
X167748857Y-124042714D01*
X167676286Y-124079000D01*
X167640000Y-124115286D01*
X167567429Y-124224143D01*
X167531143Y-124369286D01*
X167531143Y-124659571D01*
X167567429Y-124732143D01*
X167603714Y-124768429D01*
X167676286Y-124804714D01*
X167821429Y-124804714D01*
X167894000Y-124768429D01*
X167930286Y-124732143D01*
X167966571Y-124659571D01*
X167966571Y-124478143D01*
X167930286Y-124405571D01*
X167894000Y-124369286D01*
X167821429Y-124333000D01*
X167676286Y-124333000D01*
X167603714Y-124369286D01*
X167567429Y-124405571D01*
X167531143Y-124478143D01*
X166079715Y-129884714D02*
X166079715Y-129122714D01*
X166370000Y-129122714D01*
X166442572Y-129159000D01*
X166478857Y-129195286D01*
X166515143Y-129267857D01*
X166515143Y-129376714D01*
X166478857Y-129449286D01*
X166442572Y-129485571D01*
X166370000Y-129521857D01*
X166079715Y-129521857D01*
X167240857Y-129884714D02*
X166805429Y-129884714D01*
X167023143Y-129884714D02*
X167023143Y-129122714D01*
X166950572Y-129231571D01*
X166878000Y-129304143D01*
X166805429Y-129340429D01*
X167712571Y-129122714D02*
X167785143Y-129122714D01*
X167857714Y-129159000D01*
X167894000Y-129195286D01*
X167930286Y-129267857D01*
X167966571Y-129413000D01*
X167966571Y-129594429D01*
X167930286Y-129739571D01*
X167894000Y-129812143D01*
X167857714Y-129848429D01*
X167785143Y-129884714D01*
X167712571Y-129884714D01*
X167640000Y-129848429D01*
X167603714Y-129812143D01*
X167567429Y-129739571D01*
X167531143Y-129594429D01*
X167531143Y-129413000D01*
X167567429Y-129267857D01*
X167603714Y-129195286D01*
X167640000Y-129159000D01*
X167712571Y-129122714D01*
X166079715Y-132424714D02*
X166079715Y-131662714D01*
X166370000Y-131662714D01*
X166442572Y-131699000D01*
X166478857Y-131735286D01*
X166515143Y-131807857D01*
X166515143Y-131916714D01*
X166478857Y-131989286D01*
X166442572Y-132025571D01*
X166370000Y-132061857D01*
X166079715Y-132061857D01*
X167240857Y-132424714D02*
X166805429Y-132424714D01*
X167023143Y-132424714D02*
X167023143Y-131662714D01*
X166950572Y-131771571D01*
X166878000Y-131844143D01*
X166805429Y-131880429D01*
X167894000Y-131916714D02*
X167894000Y-132424714D01*
X167712571Y-131626429D02*
X167531143Y-132170714D01*
X168002857Y-132170714D01*
X166079715Y-127344714D02*
X166079715Y-126582714D01*
X166370000Y-126582714D01*
X166442572Y-126619000D01*
X166478857Y-126655286D01*
X166515143Y-126727857D01*
X166515143Y-126836714D01*
X166478857Y-126909286D01*
X166442572Y-126945571D01*
X166370000Y-126981857D01*
X166079715Y-126981857D01*
X166986857Y-126582714D02*
X167059429Y-126582714D01*
X167132000Y-126619000D01*
X167168286Y-126655286D01*
X167204572Y-126727857D01*
X167240857Y-126873000D01*
X167240857Y-127054429D01*
X167204572Y-127199571D01*
X167168286Y-127272143D01*
X167132000Y-127308429D01*
X167059429Y-127344714D01*
X166986857Y-127344714D01*
X166914286Y-127308429D01*
X166878000Y-127272143D01*
X166841715Y-127199571D01*
X166805429Y-127054429D01*
X166805429Y-126873000D01*
X166841715Y-126727857D01*
X166878000Y-126655286D01*
X166914286Y-126619000D01*
X166986857Y-126582714D01*
X167494857Y-126582714D02*
X168002857Y-126582714D01*
X167676286Y-127344714D01*
X166878000Y-114644714D02*
X166624000Y-114281857D01*
X166442572Y-114644714D02*
X166442572Y-113882714D01*
X166732857Y-113882714D01*
X166805429Y-113919000D01*
X166841714Y-113955286D01*
X166878000Y-114027857D01*
X166878000Y-114136714D01*
X166841714Y-114209286D01*
X166805429Y-114245571D01*
X166732857Y-114281857D01*
X166442572Y-114281857D01*
X167132000Y-113882714D02*
X167640000Y-114644714D01*
X167640000Y-113882714D02*
X167132000Y-114644714D01*
X166079715Y-119724714D02*
X166079715Y-118962714D01*
X166370000Y-118962714D01*
X166442572Y-118999000D01*
X166478857Y-119035286D01*
X166515143Y-119107857D01*
X166515143Y-119216714D01*
X166478857Y-119289286D01*
X166442572Y-119325571D01*
X166370000Y-119361857D01*
X166079715Y-119361857D01*
X166986857Y-118962714D02*
X167059429Y-118962714D01*
X167132000Y-118999000D01*
X167168286Y-119035286D01*
X167204572Y-119107857D01*
X167240857Y-119253000D01*
X167240857Y-119434429D01*
X167204572Y-119579571D01*
X167168286Y-119652143D01*
X167132000Y-119688429D01*
X167059429Y-119724714D01*
X166986857Y-119724714D01*
X166914286Y-119688429D01*
X166878000Y-119652143D01*
X166841715Y-119579571D01*
X166805429Y-119434429D01*
X166805429Y-119253000D01*
X166841715Y-119107857D01*
X166878000Y-119035286D01*
X166914286Y-118999000D01*
X166986857Y-118962714D01*
X167894000Y-119216714D02*
X167894000Y-119724714D01*
X167712571Y-118926429D02*
X167531143Y-119470714D01*
X168002857Y-119470714D01*
X166079715Y-122264714D02*
X166079715Y-121502714D01*
X166370000Y-121502714D01*
X166442572Y-121539000D01*
X166478857Y-121575286D01*
X166515143Y-121647857D01*
X166515143Y-121756714D01*
X166478857Y-121829286D01*
X166442572Y-121865571D01*
X166370000Y-121901857D01*
X166079715Y-121901857D01*
X166986857Y-121502714D02*
X167059429Y-121502714D01*
X167132000Y-121539000D01*
X167168286Y-121575286D01*
X167204572Y-121647857D01*
X167240857Y-121793000D01*
X167240857Y-121974429D01*
X167204572Y-122119571D01*
X167168286Y-122192143D01*
X167132000Y-122228429D01*
X167059429Y-122264714D01*
X166986857Y-122264714D01*
X166914286Y-122228429D01*
X166878000Y-122192143D01*
X166841715Y-122119571D01*
X166805429Y-121974429D01*
X166805429Y-121793000D01*
X166841715Y-121647857D01*
X166878000Y-121575286D01*
X166914286Y-121539000D01*
X166986857Y-121502714D01*
X167930286Y-121502714D02*
X167567429Y-121502714D01*
X167531143Y-121865571D01*
X167567429Y-121829286D01*
X167640000Y-121793000D01*
X167821429Y-121793000D01*
X167894000Y-121829286D01*
X167930286Y-121865571D01*
X167966571Y-121938143D01*
X167966571Y-122119571D01*
X167930286Y-122192143D01*
X167894000Y-122228429D01*
X167821429Y-122264714D01*
X167640000Y-122264714D01*
X167567429Y-122228429D01*
X167531143Y-122192143D01*
X166424429Y-116422714D02*
X166859858Y-116422714D01*
X166642144Y-117184714D02*
X166642144Y-116422714D01*
X167041286Y-116422714D02*
X167549286Y-117184714D01*
X167549286Y-116422714D02*
X167041286Y-117184714D01*
X165608001Y-109564714D02*
X165608001Y-108802714D01*
X165898286Y-108802714D01*
X165970858Y-108839000D01*
X166007143Y-108875286D01*
X166043429Y-108947857D01*
X166043429Y-109056714D01*
X166007143Y-109129286D01*
X165970858Y-109165571D01*
X165898286Y-109201857D01*
X165608001Y-109201857D01*
X166297429Y-108802714D02*
X166478858Y-109564714D01*
X166624001Y-109020429D01*
X166769143Y-109564714D01*
X166950572Y-108802714D01*
X167676286Y-109564714D02*
X167422286Y-109201857D01*
X167240858Y-109564714D02*
X167240858Y-108802714D01*
X167531143Y-108802714D01*
X167603715Y-108839000D01*
X167640000Y-108875286D01*
X167676286Y-108947857D01*
X167676286Y-109056714D01*
X167640000Y-109129286D01*
X167603715Y-109165571D01*
X167531143Y-109201857D01*
X167240858Y-109201857D01*
X168438286Y-109492143D02*
X168402000Y-109528429D01*
X168293143Y-109564714D01*
X168220572Y-109564714D01*
X168111715Y-109528429D01*
X168039143Y-109455857D01*
X168002858Y-109383286D01*
X167966572Y-109238143D01*
X167966572Y-109129286D01*
X168002858Y-108984143D01*
X168039143Y-108911571D01*
X168111715Y-108839000D01*
X168220572Y-108802714D01*
X168293143Y-108802714D01*
X168402000Y-108839000D01*
X168438286Y-108875286D01*
X166079715Y-112104714D02*
X166079715Y-111342714D01*
X166370000Y-111342714D01*
X166442572Y-111379000D01*
X166478857Y-111415286D01*
X166515143Y-111487857D01*
X166515143Y-111596714D01*
X166478857Y-111669286D01*
X166442572Y-111705571D01*
X166370000Y-111741857D01*
X166079715Y-111741857D01*
X166986857Y-111342714D02*
X167059429Y-111342714D01*
X167132000Y-111379000D01*
X167168286Y-111415286D01*
X167204572Y-111487857D01*
X167240857Y-111633000D01*
X167240857Y-111814429D01*
X167204572Y-111959571D01*
X167168286Y-112032143D01*
X167132000Y-112068429D01*
X167059429Y-112104714D01*
X166986857Y-112104714D01*
X166914286Y-112068429D01*
X166878000Y-112032143D01*
X166841715Y-111959571D01*
X166805429Y-111814429D01*
X166805429Y-111633000D01*
X166841715Y-111487857D01*
X166878000Y-111415286D01*
X166914286Y-111379000D01*
X166986857Y-111342714D01*
X167966571Y-112104714D02*
X167531143Y-112104714D01*
X167748857Y-112104714D02*
X167748857Y-111342714D01*
X167676286Y-111451571D01*
X167603714Y-111524143D01*
X167531143Y-111560429D01*
X166587715Y-107024714D02*
X166333715Y-106661857D01*
X166152287Y-107024714D02*
X166152287Y-106262714D01*
X166442572Y-106262714D01*
X166515144Y-106299000D01*
X166551429Y-106335286D01*
X166587715Y-106407857D01*
X166587715Y-106516714D01*
X166551429Y-106589286D01*
X166515144Y-106625571D01*
X166442572Y-106661857D01*
X166152287Y-106661857D01*
X166878001Y-106988429D02*
X166986858Y-107024714D01*
X167168287Y-107024714D01*
X167240858Y-106988429D01*
X167277144Y-106952143D01*
X167313429Y-106879571D01*
X167313429Y-106807000D01*
X167277144Y-106734429D01*
X167240858Y-106698143D01*
X167168287Y-106661857D01*
X167023144Y-106625571D01*
X166950572Y-106589286D01*
X166914287Y-106553000D01*
X166878001Y-106480429D01*
X166878001Y-106407857D01*
X166914287Y-106335286D01*
X166950572Y-106299000D01*
X167023144Y-106262714D01*
X167204572Y-106262714D01*
X167313429Y-106299000D01*
X167531143Y-106262714D02*
X167966572Y-106262714D01*
X167748858Y-107024714D02*
X167748858Y-106262714D01*
X166424428Y-103759000D02*
X166351857Y-103722714D01*
X166243000Y-103722714D01*
X166134143Y-103759000D01*
X166061571Y-103831571D01*
X166025286Y-103904143D01*
X165989000Y-104049286D01*
X165989000Y-104158143D01*
X166025286Y-104303286D01*
X166061571Y-104375857D01*
X166134143Y-104448429D01*
X166243000Y-104484714D01*
X166315571Y-104484714D01*
X166424428Y-104448429D01*
X166460714Y-104412143D01*
X166460714Y-104158143D01*
X166315571Y-104158143D01*
X166787286Y-104484714D02*
X166787286Y-103722714D01*
X167222714Y-104484714D01*
X167222714Y-103722714D01*
X167585572Y-104484714D02*
X167585572Y-103722714D01*
X167767000Y-103722714D01*
X167875857Y-103759000D01*
X167948429Y-103831571D01*
X167984714Y-103904143D01*
X168021000Y-104049286D01*
X168021000Y-104158143D01*
X167984714Y-104303286D01*
X167948429Y-104375857D01*
X167875857Y-104448429D01*
X167767000Y-104484714D01*
X167585572Y-104484714D01*
D14*
X140970000Y-105410000D02*
X140970000Y-133350000D01*
X140970000Y-133350000D02*
X143510000Y-133350000D01*
X143510000Y-133350000D02*
X143510000Y-105410000D01*
X140690000Y-102590000D02*
X140690000Y-104140000D01*
X140970000Y-105410000D02*
X143510000Y-105410000D01*
X143790000Y-104140000D02*
X143790000Y-102590000D01*
X143790000Y-102590000D02*
X140690000Y-102590000D01*
X163530000Y-115820000D02*
X163530000Y-116120000D01*
X163530000Y-116120000D02*
X163230000Y-116120000D01*
X163530000Y-96520000D02*
X163230000Y-96520000D01*
X163530000Y-96520000D02*
X163530000Y-96820000D01*
X148590000Y-116120000D02*
X148590000Y-115920000D01*
X148590000Y-116120000D02*
X148790000Y-116120000D01*
X148890000Y-96520000D02*
X148590000Y-96520000D01*
X148590000Y-96520000D02*
X148590000Y-96820000D01*
X152400000Y-133350000D02*
X162560000Y-133350000D01*
X162560000Y-133350000D02*
X162560000Y-130810000D01*
X162560000Y-130810000D02*
X152400000Y-130810000D01*
X149580000Y-133630000D02*
X151130000Y-133630000D01*
X152400000Y-133350000D02*
X152400000Y-130810000D01*
X151130000Y-130530000D02*
X149580000Y-130530000D01*
X149580000Y-130530000D02*
X149580000Y-133630000D01*
X168757600Y-105410000D02*
X168757600Y-133350000D01*
X168757600Y-133350000D02*
X171297600Y-133350000D01*
X171297600Y-133350000D02*
X171297600Y-105410000D01*
X168477600Y-102590000D02*
X168477600Y-104140000D01*
X168757600Y-105410000D02*
X171297600Y-105410000D01*
X171577600Y-104140000D02*
X171577600Y-102590000D01*
X171577600Y-102590000D02*
X168477600Y-102590000D01*
D15*
G36*
X147951241Y-125929184D02*
X147977753Y-125942282D01*
X148010447Y-125965106D01*
X148034275Y-125989996D01*
X148050594Y-126021249D01*
X148060760Y-126063166D01*
X148066128Y-126120044D01*
X148068056Y-126196184D01*
X148068169Y-126228917D01*
X148067839Y-126300656D01*
X148066473Y-126351927D01*
X148063500Y-126387404D01*
X148058351Y-126411763D01*
X148050457Y-126429680D01*
X148042243Y-126441902D01*
X147989813Y-126493905D01*
X147928070Y-126525184D01*
X147861464Y-126534592D01*
X147794442Y-126520980D01*
X147773208Y-126511354D01*
X147722376Y-126484859D01*
X147722376Y-126900052D01*
X147759475Y-126880868D01*
X147808357Y-126866025D01*
X147868439Y-126862222D01*
X147928436Y-126869243D01*
X147973744Y-126885013D01*
X148011325Y-126915047D01*
X148043436Y-126958024D01*
X148045850Y-126962436D01*
X148056033Y-126983221D01*
X148063470Y-127004170D01*
X148068589Y-127029548D01*
X148071819Y-127063618D01*
X148073587Y-127110641D01*
X148074323Y-127174882D01*
X148074456Y-127247176D01*
X148074456Y-127477822D01*
X147936139Y-127477822D01*
X147936139Y-127052533D01*
X147897451Y-127019979D01*
X147857262Y-126993940D01*
X147819203Y-126989205D01*
X147780934Y-127001389D01*
X147760538Y-127013320D01*
X147745358Y-127030313D01*
X147734562Y-127055995D01*
X147727317Y-127093991D01*
X147722792Y-127147926D01*
X147720156Y-127221425D01*
X147719228Y-127270347D01*
X147716089Y-127471535D01*
X147650074Y-127475336D01*
X147584060Y-127479136D01*
X147584060Y-126230650D01*
X147722376Y-126230650D01*
X147725903Y-126300254D01*
X147737785Y-126348569D01*
X147759980Y-126378631D01*
X147794441Y-126393471D01*
X147829258Y-126396436D01*
X147868671Y-126393028D01*
X147894829Y-126379617D01*
X147911186Y-126361896D01*
X147924063Y-126342835D01*
X147931728Y-126321601D01*
X147935139Y-126291849D01*
X147935251Y-126247236D01*
X147934103Y-126209880D01*
X147931468Y-126153604D01*
X147927544Y-126116658D01*
X147920937Y-126093223D01*
X147910251Y-126077480D01*
X147900167Y-126068380D01*
X147858030Y-126048537D01*
X147808160Y-126045332D01*
X147779524Y-126052168D01*
X147751172Y-126076464D01*
X147732391Y-126123728D01*
X147723288Y-126193624D01*
X147722376Y-126230650D01*
X147584060Y-126230650D01*
X147584060Y-125918614D01*
X147653218Y-125918614D01*
X147694740Y-125920256D01*
X147716162Y-125926087D01*
X147722374Y-125937461D01*
X147722376Y-125937798D01*
X147725258Y-125948938D01*
X147737970Y-125947673D01*
X147763243Y-125935433D01*
X147822131Y-125916707D01*
X147888385Y-125914739D01*
X147951241Y-125929184D01*
X147951241Y-125929184D01*
G37*
X147951241Y-125929184D02*
X147977753Y-125942282D01*
X148010447Y-125965106D01*
X148034275Y-125989996D01*
X148050594Y-126021249D01*
X148060760Y-126063166D01*
X148066128Y-126120044D01*
X148068056Y-126196184D01*
X148068169Y-126228917D01*
X148067839Y-126300656D01*
X148066473Y-126351927D01*
X148063500Y-126387404D01*
X148058351Y-126411763D01*
X148050457Y-126429680D01*
X148042243Y-126441902D01*
X147989813Y-126493905D01*
X147928070Y-126525184D01*
X147861464Y-126534592D01*
X147794442Y-126520980D01*
X147773208Y-126511354D01*
X147722376Y-126484859D01*
X147722376Y-126900052D01*
X147759475Y-126880868D01*
X147808357Y-126866025D01*
X147868439Y-126862222D01*
X147928436Y-126869243D01*
X147973744Y-126885013D01*
X148011325Y-126915047D01*
X148043436Y-126958024D01*
X148045850Y-126962436D01*
X148056033Y-126983221D01*
X148063470Y-127004170D01*
X148068589Y-127029548D01*
X148071819Y-127063618D01*
X148073587Y-127110641D01*
X148074323Y-127174882D01*
X148074456Y-127247176D01*
X148074456Y-127477822D01*
X147936139Y-127477822D01*
X147936139Y-127052533D01*
X147897451Y-127019979D01*
X147857262Y-126993940D01*
X147819203Y-126989205D01*
X147780934Y-127001389D01*
X147760538Y-127013320D01*
X147745358Y-127030313D01*
X147734562Y-127055995D01*
X147727317Y-127093991D01*
X147722792Y-127147926D01*
X147720156Y-127221425D01*
X147719228Y-127270347D01*
X147716089Y-127471535D01*
X147650074Y-127475336D01*
X147584060Y-127479136D01*
X147584060Y-126230650D01*
X147722376Y-126230650D01*
X147725903Y-126300254D01*
X147737785Y-126348569D01*
X147759980Y-126378631D01*
X147794441Y-126393471D01*
X147829258Y-126396436D01*
X147868671Y-126393028D01*
X147894829Y-126379617D01*
X147911186Y-126361896D01*
X147924063Y-126342835D01*
X147931728Y-126321601D01*
X147935139Y-126291849D01*
X147935251Y-126247236D01*
X147934103Y-126209880D01*
X147931468Y-126153604D01*
X147927544Y-126116658D01*
X147920937Y-126093223D01*
X147910251Y-126077480D01*
X147900167Y-126068380D01*
X147858030Y-126048537D01*
X147808160Y-126045332D01*
X147779524Y-126052168D01*
X147751172Y-126076464D01*
X147732391Y-126123728D01*
X147723288Y-126193624D01*
X147722376Y-126230650D01*
X147584060Y-126230650D01*
X147584060Y-125918614D01*
X147653218Y-125918614D01*
X147694740Y-125920256D01*
X147716162Y-125926087D01*
X147722374Y-125937461D01*
X147722376Y-125937798D01*
X147725258Y-125948938D01*
X147737970Y-125947673D01*
X147763243Y-125935433D01*
X147822131Y-125916707D01*
X147888385Y-125914739D01*
X147951241Y-125929184D01*
G36*
X148475790Y-126866555D02*
X148534945Y-126882339D01*
X148579977Y-126910948D01*
X148611754Y-126948419D01*
X148621634Y-126964411D01*
X148628927Y-126981163D01*
X148634026Y-127002592D01*
X148637321Y-127032616D01*
X148639203Y-127075154D01*
X148640063Y-127134122D01*
X148640293Y-127213440D01*
X148640297Y-127234484D01*
X148640297Y-127477822D01*
X148579941Y-127477822D01*
X148541443Y-127475126D01*
X148512977Y-127468295D01*
X148505845Y-127464083D01*
X148486348Y-127456813D01*
X148466434Y-127464083D01*
X148433647Y-127473160D01*
X148386022Y-127476813D01*
X148333236Y-127475228D01*
X148284964Y-127468589D01*
X148256782Y-127460072D01*
X148202247Y-127425063D01*
X148168165Y-127376479D01*
X148152843Y-127311882D01*
X148152701Y-127310223D01*
X148154045Y-127281566D01*
X148275644Y-127281566D01*
X148286274Y-127314161D01*
X148303590Y-127332505D01*
X148338348Y-127346379D01*
X148384227Y-127351917D01*
X148431012Y-127349191D01*
X148468486Y-127338274D01*
X148478985Y-127331269D01*
X148497332Y-127298904D01*
X148501980Y-127262111D01*
X148501980Y-127213763D01*
X148432418Y-127213763D01*
X148366333Y-127218850D01*
X148316236Y-127233263D01*
X148285071Y-127255729D01*
X148275644Y-127281566D01*
X148154045Y-127281566D01*
X148156013Y-127239647D01*
X148179290Y-127183845D01*
X148223052Y-127141647D01*
X148229101Y-127137808D01*
X148255093Y-127125309D01*
X148287265Y-127117740D01*
X148332240Y-127114061D01*
X148385669Y-127113216D01*
X148501980Y-127113169D01*
X148501980Y-127064411D01*
X148497047Y-127026581D01*
X148484457Y-127001236D01*
X148482983Y-126999887D01*
X148454966Y-126988800D01*
X148412674Y-126984503D01*
X148365936Y-126986615D01*
X148324582Y-126994756D01*
X148300043Y-127006965D01*
X148286747Y-127016746D01*
X148272706Y-127018613D01*
X148253329Y-127010600D01*
X148224024Y-126990739D01*
X148180197Y-126957063D01*
X148176175Y-126953909D01*
X148178236Y-126942236D01*
X148195432Y-126922822D01*
X148221567Y-126901248D01*
X148250448Y-126883096D01*
X148259522Y-126878809D01*
X148292620Y-126870256D01*
X148341120Y-126864155D01*
X148395305Y-126861708D01*
X148397839Y-126861703D01*
X148475790Y-126866555D01*
X148475790Y-126866555D01*
G37*
X148475790Y-126866555D02*
X148534945Y-126882339D01*
X148579977Y-126910948D01*
X148611754Y-126948419D01*
X148621634Y-126964411D01*
X148628927Y-126981163D01*
X148634026Y-127002592D01*
X148637321Y-127032616D01*
X148639203Y-127075154D01*
X148640063Y-127134122D01*
X148640293Y-127213440D01*
X148640297Y-127234484D01*
X148640297Y-127477822D01*
X148579941Y-127477822D01*
X148541443Y-127475126D01*
X148512977Y-127468295D01*
X148505845Y-127464083D01*
X148486348Y-127456813D01*
X148466434Y-127464083D01*
X148433647Y-127473160D01*
X148386022Y-127476813D01*
X148333236Y-127475228D01*
X148284964Y-127468589D01*
X148256782Y-127460072D01*
X148202247Y-127425063D01*
X148168165Y-127376479D01*
X148152843Y-127311882D01*
X148152701Y-127310223D01*
X148154045Y-127281566D01*
X148275644Y-127281566D01*
X148286274Y-127314161D01*
X148303590Y-127332505D01*
X148338348Y-127346379D01*
X148384227Y-127351917D01*
X148431012Y-127349191D01*
X148468486Y-127338274D01*
X148478985Y-127331269D01*
X148497332Y-127298904D01*
X148501980Y-127262111D01*
X148501980Y-127213763D01*
X148432418Y-127213763D01*
X148366333Y-127218850D01*
X148316236Y-127233263D01*
X148285071Y-127255729D01*
X148275644Y-127281566D01*
X148154045Y-127281566D01*
X148156013Y-127239647D01*
X148179290Y-127183845D01*
X148223052Y-127141647D01*
X148229101Y-127137808D01*
X148255093Y-127125309D01*
X148287265Y-127117740D01*
X148332240Y-127114061D01*
X148385669Y-127113216D01*
X148501980Y-127113169D01*
X148501980Y-127064411D01*
X148497047Y-127026581D01*
X148484457Y-127001236D01*
X148482983Y-126999887D01*
X148454966Y-126988800D01*
X148412674Y-126984503D01*
X148365936Y-126986615D01*
X148324582Y-126994756D01*
X148300043Y-127006965D01*
X148286747Y-127016746D01*
X148272706Y-127018613D01*
X148253329Y-127010600D01*
X148224024Y-126990739D01*
X148180197Y-126957063D01*
X148176175Y-126953909D01*
X148178236Y-126942236D01*
X148195432Y-126922822D01*
X148221567Y-126901248D01*
X148250448Y-126883096D01*
X148259522Y-126878809D01*
X148292620Y-126870256D01*
X148341120Y-126864155D01*
X148395305Y-126861708D01*
X148397839Y-126861703D01*
X148475790Y-126866555D01*
G36*
X148866644Y-126863020D02*
X148885461Y-126868660D01*
X148891527Y-126881053D01*
X148891782Y-126886647D01*
X148892871Y-126902230D01*
X148900368Y-126904676D01*
X148920619Y-126893993D01*
X148932649Y-126886694D01*
X148970600Y-126871063D01*
X149015928Y-126863334D01*
X149063456Y-126862740D01*
X149108005Y-126868513D01*
X149144398Y-126879884D01*
X149167457Y-126896088D01*
X149172004Y-126916355D01*
X149169709Y-126921843D01*
X149152980Y-126944626D01*
X149127037Y-126972647D01*
X149122345Y-126977177D01*
X149097617Y-126998005D01*
X149076282Y-127004735D01*
X149046445Y-127000038D01*
X149034492Y-126996917D01*
X148997295Y-126989421D01*
X148971141Y-126992792D01*
X148949054Y-127004681D01*
X148928822Y-127020635D01*
X148913921Y-127040700D01*
X148903566Y-127068702D01*
X148896971Y-127108467D01*
X148893351Y-127163823D01*
X148891922Y-127238594D01*
X148891782Y-127283740D01*
X148891782Y-127477822D01*
X148766040Y-127477822D01*
X148766040Y-126861683D01*
X148828911Y-126861683D01*
X148866644Y-126863020D01*
X148866644Y-126863020D01*
G37*
X148866644Y-126863020D02*
X148885461Y-126868660D01*
X148891527Y-126881053D01*
X148891782Y-126886647D01*
X148892871Y-126902230D01*
X148900368Y-126904676D01*
X148920619Y-126893993D01*
X148932649Y-126886694D01*
X148970600Y-126871063D01*
X149015928Y-126863334D01*
X149063456Y-126862740D01*
X149108005Y-126868513D01*
X149144398Y-126879884D01*
X149167457Y-126896088D01*
X149172004Y-126916355D01*
X149169709Y-126921843D01*
X149152980Y-126944626D01*
X149127037Y-126972647D01*
X149122345Y-126977177D01*
X149097617Y-126998005D01*
X149076282Y-127004735D01*
X149046445Y-127000038D01*
X149034492Y-126996917D01*
X148997295Y-126989421D01*
X148971141Y-126992792D01*
X148949054Y-127004681D01*
X148928822Y-127020635D01*
X148913921Y-127040700D01*
X148903566Y-127068702D01*
X148896971Y-127108467D01*
X148893351Y-127163823D01*
X148891922Y-127238594D01*
X148891782Y-127283740D01*
X148891782Y-127477822D01*
X148766040Y-127477822D01*
X148766040Y-126861683D01*
X148828911Y-126861683D01*
X148866644Y-126863020D01*
G36*
X149658812Y-127477822D02*
X149589654Y-127477822D01*
X149549512Y-127476645D01*
X149528606Y-127471772D01*
X149521078Y-127461186D01*
X149520495Y-127454029D01*
X149519226Y-127439676D01*
X149511221Y-127436923D01*
X149490185Y-127445771D01*
X149473827Y-127454029D01*
X149411023Y-127473597D01*
X149342752Y-127474729D01*
X149287248Y-127460135D01*
X149235562Y-127424877D01*
X149196162Y-127372835D01*
X149174587Y-127311450D01*
X149174038Y-127308018D01*
X149170833Y-127270571D01*
X149169239Y-127216813D01*
X149169367Y-127176155D01*
X149306721Y-127176155D01*
X149309903Y-127230194D01*
X149317141Y-127274735D01*
X149326940Y-127299888D01*
X149364011Y-127334260D01*
X149408026Y-127346582D01*
X149453416Y-127336618D01*
X149492203Y-127306895D01*
X149506892Y-127286905D01*
X149515481Y-127263050D01*
X149519504Y-127228230D01*
X149520495Y-127175930D01*
X149518722Y-127124139D01*
X149514037Y-127078634D01*
X149507397Y-127048181D01*
X149506290Y-127045452D01*
X149479509Y-127013000D01*
X149440421Y-126995183D01*
X149396685Y-126992306D01*
X149355962Y-127004674D01*
X149325913Y-127032593D01*
X149322796Y-127038148D01*
X149313039Y-127072022D01*
X149307723Y-127120728D01*
X149306721Y-127176155D01*
X149169367Y-127176155D01*
X149169432Y-127155540D01*
X149170336Y-127122563D01*
X149176486Y-127040981D01*
X149189267Y-126979730D01*
X149210529Y-126934449D01*
X149242122Y-126900779D01*
X149272793Y-126881014D01*
X149315646Y-126867120D01*
X149368944Y-126862354D01*
X149423520Y-126866236D01*
X149470208Y-126878282D01*
X149494876Y-126892693D01*
X149520495Y-126915878D01*
X149520495Y-126622773D01*
X149658812Y-126622773D01*
X149658812Y-127477822D01*
X149658812Y-127477822D01*
G37*
X149658812Y-127477822D02*
X149589654Y-127477822D01*
X149549512Y-127476645D01*
X149528606Y-127471772D01*
X149521078Y-127461186D01*
X149520495Y-127454029D01*
X149519226Y-127439676D01*
X149511221Y-127436923D01*
X149490185Y-127445771D01*
X149473827Y-127454029D01*
X149411023Y-127473597D01*
X149342752Y-127474729D01*
X149287248Y-127460135D01*
X149235562Y-127424877D01*
X149196162Y-127372835D01*
X149174587Y-127311450D01*
X149174038Y-127308018D01*
X149170833Y-127270571D01*
X149169239Y-127216813D01*
X149169367Y-127176155D01*
X149306721Y-127176155D01*
X149309903Y-127230194D01*
X149317141Y-127274735D01*
X149326940Y-127299888D01*
X149364011Y-127334260D01*
X149408026Y-127346582D01*
X149453416Y-127336618D01*
X149492203Y-127306895D01*
X149506892Y-127286905D01*
X149515481Y-127263050D01*
X149519504Y-127228230D01*
X149520495Y-127175930D01*
X149518722Y-127124139D01*
X149514037Y-127078634D01*
X149507397Y-127048181D01*
X149506290Y-127045452D01*
X149479509Y-127013000D01*
X149440421Y-126995183D01*
X149396685Y-126992306D01*
X149355962Y-127004674D01*
X149325913Y-127032593D01*
X149322796Y-127038148D01*
X149313039Y-127072022D01*
X149307723Y-127120728D01*
X149306721Y-127176155D01*
X149169367Y-127176155D01*
X149169432Y-127155540D01*
X149170336Y-127122563D01*
X149176486Y-127040981D01*
X149189267Y-126979730D01*
X149210529Y-126934449D01*
X149242122Y-126900779D01*
X149272793Y-126881014D01*
X149315646Y-126867120D01*
X149368944Y-126862354D01*
X149423520Y-126866236D01*
X149470208Y-126878282D01*
X149494876Y-126892693D01*
X149520495Y-126915878D01*
X149520495Y-126622773D01*
X149658812Y-126622773D01*
X149658812Y-127477822D01*
G36*
X150141524Y-126864237D02*
X150191255Y-126867971D01*
X150321291Y-127257773D01*
X150341678Y-127188614D01*
X150353946Y-127145874D01*
X150370085Y-127088115D01*
X150387512Y-127024625D01*
X150396726Y-126990570D01*
X150431388Y-126861683D01*
X150574391Y-126861683D01*
X150531646Y-126996857D01*
X150510596Y-127063342D01*
X150485167Y-127143539D01*
X150458610Y-127227193D01*
X150434902Y-127301782D01*
X150380902Y-127471535D01*
X150322598Y-127475328D01*
X150264295Y-127479122D01*
X150232679Y-127374734D01*
X150213182Y-127309889D01*
X150191904Y-127238400D01*
X150173308Y-127175263D01*
X150172574Y-127172750D01*
X150158684Y-127129969D01*
X150146429Y-127100779D01*
X150137846Y-127089741D01*
X150136082Y-127091018D01*
X150129891Y-127108130D01*
X150118128Y-127144787D01*
X150102225Y-127196378D01*
X150083614Y-127258294D01*
X150073543Y-127292352D01*
X150019007Y-127477822D01*
X149903264Y-127477822D01*
X149810737Y-127185471D01*
X149784744Y-127103462D01*
X149761066Y-127028987D01*
X149740820Y-126965544D01*
X149725126Y-126916632D01*
X149715102Y-126885749D01*
X149712055Y-126876726D01*
X149714467Y-126867487D01*
X149733408Y-126863441D01*
X149772823Y-126863846D01*
X149778993Y-126864152D01*
X149852086Y-126867971D01*
X149899957Y-127044010D01*
X149917553Y-127108211D01*
X149933277Y-127164649D01*
X149945746Y-127208422D01*
X149953574Y-127234630D01*
X149955020Y-127238903D01*
X149961014Y-127233990D01*
X149973101Y-127208532D01*
X149989893Y-127165997D01*
X150010003Y-127109850D01*
X150027003Y-127059130D01*
X150091794Y-126860504D01*
X150141524Y-126864237D01*
X150141524Y-126864237D01*
G37*
X150141524Y-126864237D02*
X150191255Y-126867971D01*
X150321291Y-127257773D01*
X150341678Y-127188614D01*
X150353946Y-127145874D01*
X150370085Y-127088115D01*
X150387512Y-127024625D01*
X150396726Y-126990570D01*
X150431388Y-126861683D01*
X150574391Y-126861683D01*
X150531646Y-126996857D01*
X150510596Y-127063342D01*
X150485167Y-127143539D01*
X150458610Y-127227193D01*
X150434902Y-127301782D01*
X150380902Y-127471535D01*
X150322598Y-127475328D01*
X150264295Y-127479122D01*
X150232679Y-127374734D01*
X150213182Y-127309889D01*
X150191904Y-127238400D01*
X150173308Y-127175263D01*
X150172574Y-127172750D01*
X150158684Y-127129969D01*
X150146429Y-127100779D01*
X150137846Y-127089741D01*
X150136082Y-127091018D01*
X150129891Y-127108130D01*
X150118128Y-127144787D01*
X150102225Y-127196378D01*
X150083614Y-127258294D01*
X150073543Y-127292352D01*
X150019007Y-127477822D01*
X149903264Y-127477822D01*
X149810737Y-127185471D01*
X149784744Y-127103462D01*
X149761066Y-127028987D01*
X149740820Y-126965544D01*
X149725126Y-126916632D01*
X149715102Y-126885749D01*
X149712055Y-126876726D01*
X149714467Y-126867487D01*
X149733408Y-126863441D01*
X149772823Y-126863846D01*
X149778993Y-126864152D01*
X149852086Y-126867971D01*
X149899957Y-127044010D01*
X149917553Y-127108211D01*
X149933277Y-127164649D01*
X149945746Y-127208422D01*
X149953574Y-127234630D01*
X149955020Y-127238903D01*
X149961014Y-127233990D01*
X149973101Y-127208532D01*
X149989893Y-127165997D01*
X150010003Y-127109850D01*
X150027003Y-127059130D01*
X150091794Y-126860504D01*
X150141524Y-126864237D01*
G36*
X150898411Y-126865417D02*
X150951411Y-126878290D01*
X150966731Y-126885110D01*
X150996428Y-126902974D01*
X151019220Y-126923093D01*
X151036083Y-126948962D01*
X151047998Y-126984073D01*
X151055942Y-127031920D01*
X151060894Y-127095996D01*
X151063831Y-127179794D01*
X151064947Y-127235768D01*
X151069052Y-127477822D01*
X150998932Y-127477822D01*
X150956393Y-127476038D01*
X150934476Y-127469942D01*
X150928812Y-127459706D01*
X150925821Y-127448637D01*
X150912451Y-127450754D01*
X150894233Y-127459629D01*
X150848624Y-127473233D01*
X150790007Y-127476899D01*
X150728354Y-127470903D01*
X150673638Y-127455521D01*
X150668730Y-127453386D01*
X150618723Y-127418255D01*
X150585756Y-127369419D01*
X150570587Y-127312333D01*
X150571746Y-127291824D01*
X150695508Y-127291824D01*
X150706413Y-127319425D01*
X150738745Y-127339204D01*
X150790910Y-127349819D01*
X150818787Y-127351228D01*
X150865247Y-127347620D01*
X150896129Y-127333597D01*
X150903664Y-127326931D01*
X150924076Y-127290666D01*
X150928812Y-127257773D01*
X150928812Y-127213763D01*
X150867513Y-127213763D01*
X150796256Y-127217395D01*
X150746276Y-127228818D01*
X150714696Y-127248824D01*
X150707626Y-127257743D01*
X150695508Y-127291824D01*
X150571746Y-127291824D01*
X150573971Y-127252456D01*
X150596663Y-127195244D01*
X150627624Y-127156580D01*
X150646376Y-127139864D01*
X150664733Y-127128878D01*
X150688619Y-127122180D01*
X150723957Y-127118326D01*
X150776669Y-127115873D01*
X150797577Y-127115168D01*
X150928812Y-127110879D01*
X150928620Y-127071158D01*
X150923537Y-127029405D01*
X150905162Y-127004158D01*
X150868039Y-126988030D01*
X150867043Y-126987742D01*
X150814410Y-126981400D01*
X150762906Y-126989684D01*
X150724630Y-127009827D01*
X150709272Y-127019773D01*
X150692730Y-127018397D01*
X150667275Y-127003987D01*
X150652328Y-126993817D01*
X150623091Y-126972088D01*
X150604980Y-126955800D01*
X150602074Y-126951137D01*
X150614040Y-126927005D01*
X150649396Y-126898185D01*
X150664753Y-126888461D01*
X150708901Y-126871714D01*
X150768398Y-126862227D01*
X150834487Y-126860095D01*
X150898411Y-126865417D01*
X150898411Y-126865417D01*
G37*
X150898411Y-126865417D02*
X150951411Y-126878290D01*
X150966731Y-126885110D01*
X150996428Y-126902974D01*
X151019220Y-126923093D01*
X151036083Y-126948962D01*
X151047998Y-126984073D01*
X151055942Y-127031920D01*
X151060894Y-127095996D01*
X151063831Y-127179794D01*
X151064947Y-127235768D01*
X151069052Y-127477822D01*
X150998932Y-127477822D01*
X150956393Y-127476038D01*
X150934476Y-127469942D01*
X150928812Y-127459706D01*
X150925821Y-127448637D01*
X150912451Y-127450754D01*
X150894233Y-127459629D01*
X150848624Y-127473233D01*
X150790007Y-127476899D01*
X150728354Y-127470903D01*
X150673638Y-127455521D01*
X150668730Y-127453386D01*
X150618723Y-127418255D01*
X150585756Y-127369419D01*
X150570587Y-127312333D01*
X150571746Y-127291824D01*
X150695508Y-127291824D01*
X150706413Y-127319425D01*
X150738745Y-127339204D01*
X150790910Y-127349819D01*
X150818787Y-127351228D01*
X150865247Y-127347620D01*
X150896129Y-127333597D01*
X150903664Y-127326931D01*
X150924076Y-127290666D01*
X150928812Y-127257773D01*
X150928812Y-127213763D01*
X150867513Y-127213763D01*
X150796256Y-127217395D01*
X150746276Y-127228818D01*
X150714696Y-127248824D01*
X150707626Y-127257743D01*
X150695508Y-127291824D01*
X150571746Y-127291824D01*
X150573971Y-127252456D01*
X150596663Y-127195244D01*
X150627624Y-127156580D01*
X150646376Y-127139864D01*
X150664733Y-127128878D01*
X150688619Y-127122180D01*
X150723957Y-127118326D01*
X150776669Y-127115873D01*
X150797577Y-127115168D01*
X150928812Y-127110879D01*
X150928620Y-127071158D01*
X150923537Y-127029405D01*
X150905162Y-127004158D01*
X150868039Y-126988030D01*
X150867043Y-126987742D01*
X150814410Y-126981400D01*
X150762906Y-126989684D01*
X150724630Y-127009827D01*
X150709272Y-127019773D01*
X150692730Y-127018397D01*
X150667275Y-127003987D01*
X150652328Y-126993817D01*
X150623091Y-126972088D01*
X150604980Y-126955800D01*
X150602074Y-126951137D01*
X150614040Y-126927005D01*
X150649396Y-126898185D01*
X150664753Y-126888461D01*
X150708901Y-126871714D01*
X150768398Y-126862227D01*
X150834487Y-126860095D01*
X150898411Y-126865417D01*
G36*
X151495255Y-126861486D02*
X151543595Y-126871015D01*
X151571114Y-126885125D01*
X151600064Y-126908568D01*
X151558876Y-126960571D01*
X151533482Y-126992064D01*
X151516238Y-127007428D01*
X151499102Y-127009776D01*
X151474027Y-127002217D01*
X151462257Y-126997941D01*
X151414270Y-126991631D01*
X151370324Y-127005156D01*
X151338060Y-127035710D01*
X151332819Y-127045452D01*
X151327112Y-127071258D01*
X151322706Y-127118817D01*
X151319811Y-127184758D01*
X151318631Y-127265710D01*
X151318614Y-127277226D01*
X151318614Y-127477822D01*
X151180297Y-127477822D01*
X151180297Y-126861683D01*
X151249456Y-126861683D01*
X151289333Y-126862725D01*
X151310107Y-126867358D01*
X151317789Y-126877849D01*
X151318614Y-126887745D01*
X151318614Y-126913806D01*
X151351745Y-126887745D01*
X151389735Y-126869965D01*
X151440770Y-126861174D01*
X151495255Y-126861486D01*
X151495255Y-126861486D01*
G37*
X151495255Y-126861486D02*
X151543595Y-126871015D01*
X151571114Y-126885125D01*
X151600064Y-126908568D01*
X151558876Y-126960571D01*
X151533482Y-126992064D01*
X151516238Y-127007428D01*
X151499102Y-127009776D01*
X151474027Y-127002217D01*
X151462257Y-126997941D01*
X151414270Y-126991631D01*
X151370324Y-127005156D01*
X151338060Y-127035710D01*
X151332819Y-127045452D01*
X151327112Y-127071258D01*
X151322706Y-127118817D01*
X151319811Y-127184758D01*
X151318631Y-127265710D01*
X151318614Y-127277226D01*
X151318614Y-127477822D01*
X151180297Y-127477822D01*
X151180297Y-126861683D01*
X151249456Y-126861683D01*
X151289333Y-126862725D01*
X151310107Y-126867358D01*
X151317789Y-126877849D01*
X151318614Y-126887745D01*
X151318614Y-126913806D01*
X151351745Y-126887745D01*
X151389735Y-126869965D01*
X151440770Y-126861174D01*
X151495255Y-126861486D01*
G36*
X151892581Y-126864970D02*
X151952685Y-126880597D01*
X152003021Y-126912848D01*
X152027393Y-126936940D01*
X152067345Y-126993895D01*
X152090242Y-127059965D01*
X152098108Y-127141182D01*
X152098148Y-127147748D01*
X152098218Y-127213763D01*
X151718264Y-127213763D01*
X151726363Y-127248342D01*
X151740987Y-127279659D01*
X151766581Y-127312291D01*
X151771935Y-127317500D01*
X151817943Y-127345694D01*
X151870410Y-127350475D01*
X151930803Y-127331926D01*
X151941040Y-127326931D01*
X151972439Y-127311745D01*
X151993470Y-127303094D01*
X151997139Y-127302293D01*
X152009948Y-127310063D01*
X152034378Y-127329072D01*
X152046779Y-127339460D01*
X152072476Y-127363321D01*
X152080915Y-127379077D01*
X152075058Y-127393571D01*
X152071928Y-127397534D01*
X152050725Y-127414879D01*
X152015738Y-127435959D01*
X151991337Y-127448265D01*
X151922072Y-127469946D01*
X151845388Y-127476971D01*
X151772765Y-127468647D01*
X151752426Y-127462686D01*
X151689476Y-127428952D01*
X151642815Y-127377045D01*
X151612173Y-127306459D01*
X151597282Y-127216692D01*
X151595647Y-127169753D01*
X151600421Y-127101413D01*
X151720990Y-127101413D01*
X151732652Y-127106465D01*
X151763998Y-127110429D01*
X151809571Y-127112768D01*
X151840446Y-127113169D01*
X151895981Y-127112783D01*
X151931033Y-127110975D01*
X151950262Y-127106773D01*
X151958330Y-127099203D01*
X151959901Y-127088218D01*
X151949121Y-127054381D01*
X151921980Y-127020940D01*
X151886277Y-126995272D01*
X151850560Y-126984772D01*
X151802048Y-126994086D01*
X151760053Y-127021013D01*
X151730936Y-127059827D01*
X151720990Y-127101413D01*
X151600421Y-127101413D01*
X151602599Y-127070236D01*
X151624055Y-126990949D01*
X151660470Y-126931263D01*
X151712297Y-126890549D01*
X151779990Y-126868179D01*
X151816662Y-126863871D01*
X151892581Y-126864970D01*
X151892581Y-126864970D01*
G37*
X151892581Y-126864970D02*
X151952685Y-126880597D01*
X152003021Y-126912848D01*
X152027393Y-126936940D01*
X152067345Y-126993895D01*
X152090242Y-127059965D01*
X152098108Y-127141182D01*
X152098148Y-127147748D01*
X152098218Y-127213763D01*
X151718264Y-127213763D01*
X151726363Y-127248342D01*
X151740987Y-127279659D01*
X151766581Y-127312291D01*
X151771935Y-127317500D01*
X151817943Y-127345694D01*
X151870410Y-127350475D01*
X151930803Y-127331926D01*
X151941040Y-127326931D01*
X151972439Y-127311745D01*
X151993470Y-127303094D01*
X151997139Y-127302293D01*
X152009948Y-127310063D01*
X152034378Y-127329072D01*
X152046779Y-127339460D01*
X152072476Y-127363321D01*
X152080915Y-127379077D01*
X152075058Y-127393571D01*
X152071928Y-127397534D01*
X152050725Y-127414879D01*
X152015738Y-127435959D01*
X151991337Y-127448265D01*
X151922072Y-127469946D01*
X151845388Y-127476971D01*
X151772765Y-127468647D01*
X151752426Y-127462686D01*
X151689476Y-127428952D01*
X151642815Y-127377045D01*
X151612173Y-127306459D01*
X151597282Y-127216692D01*
X151595647Y-127169753D01*
X151600421Y-127101413D01*
X151720990Y-127101413D01*
X151732652Y-127106465D01*
X151763998Y-127110429D01*
X151809571Y-127112768D01*
X151840446Y-127113169D01*
X151895981Y-127112783D01*
X151931033Y-127110975D01*
X151950262Y-127106773D01*
X151958330Y-127099203D01*
X151959901Y-127088218D01*
X151949121Y-127054381D01*
X151921980Y-127020940D01*
X151886277Y-126995272D01*
X151850560Y-126984772D01*
X151802048Y-126994086D01*
X151760053Y-127021013D01*
X151730936Y-127059827D01*
X151720990Y-127101413D01*
X151600421Y-127101413D01*
X151602599Y-127070236D01*
X151624055Y-126990949D01*
X151660470Y-126931263D01*
X151712297Y-126890549D01*
X151779990Y-126868179D01*
X151816662Y-126863871D01*
X151892581Y-126864970D01*
G36*
X147321739Y-125925148D02*
X147387521Y-125954231D01*
X147437460Y-126002793D01*
X147471626Y-126070908D01*
X147490093Y-126158651D01*
X147491417Y-126172351D01*
X147492454Y-126268939D01*
X147479007Y-126353602D01*
X147451892Y-126422221D01*
X147437373Y-126444294D01*
X147386799Y-126491011D01*
X147322391Y-126521268D01*
X147250334Y-126533824D01*
X147176815Y-126527439D01*
X147120928Y-126507772D01*
X147072868Y-126474629D01*
X147033588Y-126431175D01*
X147032908Y-126430158D01*
X147016956Y-126403338D01*
X147006590Y-126376368D01*
X147000312Y-126342332D01*
X146996627Y-126294310D01*
X146995003Y-126254931D01*
X146994328Y-126219219D01*
X147120045Y-126219219D01*
X147121274Y-126254770D01*
X147125734Y-126302094D01*
X147133603Y-126332465D01*
X147147793Y-126354072D01*
X147161083Y-126366694D01*
X147208198Y-126393122D01*
X147257495Y-126396653D01*
X147303407Y-126377639D01*
X147326362Y-126356331D01*
X147342904Y-126334859D01*
X147352579Y-126314313D01*
X147356826Y-126287574D01*
X147357080Y-126247523D01*
X147355772Y-126210638D01*
X147352957Y-126157947D01*
X147348495Y-126123772D01*
X147340452Y-126101480D01*
X147326897Y-126084442D01*
X147316155Y-126074703D01*
X147271223Y-126049123D01*
X147222751Y-126047847D01*
X147182106Y-126062999D01*
X147147433Y-126094642D01*
X147126776Y-126146620D01*
X147120045Y-126219219D01*
X146994328Y-126219219D01*
X146993521Y-126176621D01*
X146996052Y-126118056D01*
X147003638Y-126074007D01*
X147017319Y-126039248D01*
X147038135Y-126008551D01*
X147045853Y-125999436D01*
X147094111Y-125954021D01*
X147145872Y-125927493D01*
X147209172Y-125916379D01*
X147240039Y-125915471D01*
X147321739Y-125925148D01*
X147321739Y-125925148D01*
G37*
X147321739Y-125925148D02*
X147387521Y-125954231D01*
X147437460Y-126002793D01*
X147471626Y-126070908D01*
X147490093Y-126158651D01*
X147491417Y-126172351D01*
X147492454Y-126268939D01*
X147479007Y-126353602D01*
X147451892Y-126422221D01*
X147437373Y-126444294D01*
X147386799Y-126491011D01*
X147322391Y-126521268D01*
X147250334Y-126533824D01*
X147176815Y-126527439D01*
X147120928Y-126507772D01*
X147072868Y-126474629D01*
X147033588Y-126431175D01*
X147032908Y-126430158D01*
X147016956Y-126403338D01*
X147006590Y-126376368D01*
X147000312Y-126342332D01*
X146996627Y-126294310D01*
X146995003Y-126254931D01*
X146994328Y-126219219D01*
X147120045Y-126219219D01*
X147121274Y-126254770D01*
X147125734Y-126302094D01*
X147133603Y-126332465D01*
X147147793Y-126354072D01*
X147161083Y-126366694D01*
X147208198Y-126393122D01*
X147257495Y-126396653D01*
X147303407Y-126377639D01*
X147326362Y-126356331D01*
X147342904Y-126334859D01*
X147352579Y-126314313D01*
X147356826Y-126287574D01*
X147357080Y-126247523D01*
X147355772Y-126210638D01*
X147352957Y-126157947D01*
X147348495Y-126123772D01*
X147340452Y-126101480D01*
X147326897Y-126084442D01*
X147316155Y-126074703D01*
X147271223Y-126049123D01*
X147222751Y-126047847D01*
X147182106Y-126062999D01*
X147147433Y-126094642D01*
X147126776Y-126146620D01*
X147120045Y-126219219D01*
X146994328Y-126219219D01*
X146993521Y-126176621D01*
X146996052Y-126118056D01*
X147003638Y-126074007D01*
X147017319Y-126039248D01*
X147038135Y-126008551D01*
X147045853Y-125999436D01*
X147094111Y-125954021D01*
X147145872Y-125927493D01*
X147209172Y-125916379D01*
X147240039Y-125915471D01*
X147321739Y-125925148D01*
G36*
X148503301Y-125932614D02*
X148515832Y-125938514D01*
X148559201Y-125970283D01*
X148600210Y-126016646D01*
X148630832Y-126067696D01*
X148639541Y-126091166D01*
X148647488Y-126133091D01*
X148652226Y-126183757D01*
X148652801Y-126204679D01*
X148652871Y-126270693D01*
X148272917Y-126270693D01*
X148281017Y-126305273D01*
X148300896Y-126346170D01*
X148335653Y-126381514D01*
X148377002Y-126404282D01*
X148403351Y-126409010D01*
X148439084Y-126403273D01*
X148481718Y-126388882D01*
X148496201Y-126382262D01*
X148549760Y-126355513D01*
X148595467Y-126390376D01*
X148621842Y-126413955D01*
X148635876Y-126433417D01*
X148636586Y-126439129D01*
X148624049Y-126452973D01*
X148596572Y-126474012D01*
X148571634Y-126490425D01*
X148504336Y-126519930D01*
X148428890Y-126533284D01*
X148354112Y-126529812D01*
X148294505Y-126511663D01*
X148233059Y-126472784D01*
X148189392Y-126421595D01*
X148162074Y-126355367D01*
X148149678Y-126271371D01*
X148148579Y-126232936D01*
X148152978Y-126144861D01*
X148153518Y-126142299D01*
X148279418Y-126142299D01*
X148282885Y-126150558D01*
X148297137Y-126155113D01*
X148326530Y-126157065D01*
X148375425Y-126157517D01*
X148394252Y-126157525D01*
X148451533Y-126156843D01*
X148487859Y-126154364D01*
X148507396Y-126149443D01*
X148514310Y-126141434D01*
X148514555Y-126138862D01*
X148506664Y-126118423D01*
X148486915Y-126089789D01*
X148478425Y-126079763D01*
X148446906Y-126051408D01*
X148414051Y-126040259D01*
X148396349Y-126039327D01*
X148348461Y-126050981D01*
X148308301Y-126082285D01*
X148282827Y-126127752D01*
X148282375Y-126129233D01*
X148279418Y-126142299D01*
X148153518Y-126142299D01*
X148167608Y-126075510D01*
X148193962Y-126020025D01*
X148226193Y-125980639D01*
X148285783Y-125937931D01*
X148355832Y-125915109D01*
X148430339Y-125913046D01*
X148503301Y-125932614D01*
X148503301Y-125932614D01*
G37*
X148503301Y-125932614D02*
X148515832Y-125938514D01*
X148559201Y-125970283D01*
X148600210Y-126016646D01*
X148630832Y-126067696D01*
X148639541Y-126091166D01*
X148647488Y-126133091D01*
X148652226Y-126183757D01*
X148652801Y-126204679D01*
X148652871Y-126270693D01*
X148272917Y-126270693D01*
X148281017Y-126305273D01*
X148300896Y-126346170D01*
X148335653Y-126381514D01*
X148377002Y-126404282D01*
X148403351Y-126409010D01*
X148439084Y-126403273D01*
X148481718Y-126388882D01*
X148496201Y-126382262D01*
X148549760Y-126355513D01*
X148595467Y-126390376D01*
X148621842Y-126413955D01*
X148635876Y-126433417D01*
X148636586Y-126439129D01*
X148624049Y-126452973D01*
X148596572Y-126474012D01*
X148571634Y-126490425D01*
X148504336Y-126519930D01*
X148428890Y-126533284D01*
X148354112Y-126529812D01*
X148294505Y-126511663D01*
X148233059Y-126472784D01*
X148189392Y-126421595D01*
X148162074Y-126355367D01*
X148149678Y-126271371D01*
X148148579Y-126232936D01*
X148152978Y-126144861D01*
X148153518Y-126142299D01*
X148279418Y-126142299D01*
X148282885Y-126150558D01*
X148297137Y-126155113D01*
X148326530Y-126157065D01*
X148375425Y-126157517D01*
X148394252Y-126157525D01*
X148451533Y-126156843D01*
X148487859Y-126154364D01*
X148507396Y-126149443D01*
X148514310Y-126141434D01*
X148514555Y-126138862D01*
X148506664Y-126118423D01*
X148486915Y-126089789D01*
X148478425Y-126079763D01*
X148446906Y-126051408D01*
X148414051Y-126040259D01*
X148396349Y-126039327D01*
X148348461Y-126050981D01*
X148308301Y-126082285D01*
X148282827Y-126127752D01*
X148282375Y-126129233D01*
X148279418Y-126142299D01*
X148153518Y-126142299D01*
X148167608Y-126075510D01*
X148193962Y-126020025D01*
X148226193Y-125980639D01*
X148285783Y-125937931D01*
X148355832Y-125915109D01*
X148430339Y-125913046D01*
X148503301Y-125932614D01*
G36*
X149874017Y-125916452D02*
X149921634Y-125925482D01*
X149971034Y-125944370D01*
X149976312Y-125946777D01*
X150013774Y-125966476D01*
X150039717Y-125984781D01*
X150048103Y-125996508D01*
X150040117Y-126015632D01*
X150020720Y-126043850D01*
X150012110Y-126054384D01*
X149976628Y-126095847D01*
X149930885Y-126068858D01*
X149887350Y-126050878D01*
X149837050Y-126041267D01*
X149788812Y-126040660D01*
X149751467Y-126049691D01*
X149742505Y-126055327D01*
X149725437Y-126081171D01*
X149723363Y-126110941D01*
X149736134Y-126134197D01*
X149743688Y-126138708D01*
X149766325Y-126144309D01*
X149806115Y-126150892D01*
X149855166Y-126157183D01*
X149864215Y-126158170D01*
X149942996Y-126171798D01*
X150000136Y-126194946D01*
X150038030Y-126229752D01*
X150059079Y-126278354D01*
X150065635Y-126337718D01*
X150056577Y-126405198D01*
X150027164Y-126458188D01*
X149977278Y-126496783D01*
X149906800Y-126521081D01*
X149828565Y-126530667D01*
X149764766Y-126530552D01*
X149713016Y-126521845D01*
X149677673Y-126509825D01*
X149633017Y-126488880D01*
X149591747Y-126464574D01*
X149577079Y-126453876D01*
X149539357Y-126423084D01*
X149584852Y-126377049D01*
X149630347Y-126331013D01*
X149682072Y-126365243D01*
X149733952Y-126390952D01*
X149789351Y-126404399D01*
X149842605Y-126405818D01*
X149888049Y-126395443D01*
X149920016Y-126373507D01*
X149930338Y-126354998D01*
X149928789Y-126325314D01*
X149903140Y-126302615D01*
X149853460Y-126286940D01*
X149799031Y-126279695D01*
X149715264Y-126265873D01*
X149653033Y-126239796D01*
X149611507Y-126200699D01*
X149589853Y-126147820D01*
X149586853Y-126085126D01*
X149601671Y-126019642D01*
X149635454Y-125970144D01*
X149688505Y-125936408D01*
X149761126Y-125918207D01*
X149814928Y-125914639D01*
X149874017Y-125916452D01*
X149874017Y-125916452D01*
G37*
X149874017Y-125916452D02*
X149921634Y-125925482D01*
X149971034Y-125944370D01*
X149976312Y-125946777D01*
X150013774Y-125966476D01*
X150039717Y-125984781D01*
X150048103Y-125996508D01*
X150040117Y-126015632D01*
X150020720Y-126043850D01*
X150012110Y-126054384D01*
X149976628Y-126095847D01*
X149930885Y-126068858D01*
X149887350Y-126050878D01*
X149837050Y-126041267D01*
X149788812Y-126040660D01*
X149751467Y-126049691D01*
X149742505Y-126055327D01*
X149725437Y-126081171D01*
X149723363Y-126110941D01*
X149736134Y-126134197D01*
X149743688Y-126138708D01*
X149766325Y-126144309D01*
X149806115Y-126150892D01*
X149855166Y-126157183D01*
X149864215Y-126158170D01*
X149942996Y-126171798D01*
X150000136Y-126194946D01*
X150038030Y-126229752D01*
X150059079Y-126278354D01*
X150065635Y-126337718D01*
X150056577Y-126405198D01*
X150027164Y-126458188D01*
X149977278Y-126496783D01*
X149906800Y-126521081D01*
X149828565Y-126530667D01*
X149764766Y-126530552D01*
X149713016Y-126521845D01*
X149677673Y-126509825D01*
X149633017Y-126488880D01*
X149591747Y-126464574D01*
X149577079Y-126453876D01*
X149539357Y-126423084D01*
X149584852Y-126377049D01*
X149630347Y-126331013D01*
X149682072Y-126365243D01*
X149733952Y-126390952D01*
X149789351Y-126404399D01*
X149842605Y-126405818D01*
X149888049Y-126395443D01*
X149920016Y-126373507D01*
X149930338Y-126354998D01*
X149928789Y-126325314D01*
X149903140Y-126302615D01*
X149853460Y-126286940D01*
X149799031Y-126279695D01*
X149715264Y-126265873D01*
X149653033Y-126239796D01*
X149611507Y-126200699D01*
X149589853Y-126147820D01*
X149586853Y-126085126D01*
X149601671Y-126019642D01*
X149635454Y-125970144D01*
X149688505Y-125936408D01*
X149761126Y-125918207D01*
X149814928Y-125914639D01*
X149874017Y-125916452D01*
G36*
X150470762Y-125926055D02*
X150534363Y-125960692D01*
X150584123Y-126015372D01*
X150607568Y-126059842D01*
X150617634Y-126099121D01*
X150624156Y-126155116D01*
X150626951Y-126219621D01*
X150625836Y-126284429D01*
X150620626Y-126341334D01*
X150614541Y-126371727D01*
X150594014Y-126413306D01*
X150558463Y-126457468D01*
X150515619Y-126496087D01*
X150473211Y-126521034D01*
X150472177Y-126521430D01*
X150419553Y-126532331D01*
X150357188Y-126532601D01*
X150297924Y-126522676D01*
X150275040Y-126514722D01*
X150216102Y-126481300D01*
X150173890Y-126437511D01*
X150146156Y-126379538D01*
X150130651Y-126303565D01*
X150127143Y-126263771D01*
X150127590Y-126213766D01*
X150262376Y-126213766D01*
X150266917Y-126286732D01*
X150279986Y-126342334D01*
X150300756Y-126377861D01*
X150315552Y-126388020D01*
X150353464Y-126395104D01*
X150398527Y-126393007D01*
X150437487Y-126382812D01*
X150447704Y-126377204D01*
X150474659Y-126344538D01*
X150492451Y-126294545D01*
X150500024Y-126233705D01*
X150496325Y-126168497D01*
X150488057Y-126129253D01*
X150464320Y-126083805D01*
X150426849Y-126055396D01*
X150381720Y-126045573D01*
X150335011Y-126055887D01*
X150299132Y-126081112D01*
X150280277Y-126101925D01*
X150269272Y-126122439D01*
X150264026Y-126150203D01*
X150262449Y-126192762D01*
X150262376Y-126213766D01*
X150127590Y-126213766D01*
X150128094Y-126157580D01*
X150145388Y-126070501D01*
X150179029Y-126002530D01*
X150229018Y-125953664D01*
X150295356Y-125923899D01*
X150309601Y-125920448D01*
X150395210Y-125912345D01*
X150470762Y-125926055D01*
X150470762Y-125926055D01*
G37*
X150470762Y-125926055D02*
X150534363Y-125960692D01*
X150584123Y-126015372D01*
X150607568Y-126059842D01*
X150617634Y-126099121D01*
X150624156Y-126155116D01*
X150626951Y-126219621D01*
X150625836Y-126284429D01*
X150620626Y-126341334D01*
X150614541Y-126371727D01*
X150594014Y-126413306D01*
X150558463Y-126457468D01*
X150515619Y-126496087D01*
X150473211Y-126521034D01*
X150472177Y-126521430D01*
X150419553Y-126532331D01*
X150357188Y-126532601D01*
X150297924Y-126522676D01*
X150275040Y-126514722D01*
X150216102Y-126481300D01*
X150173890Y-126437511D01*
X150146156Y-126379538D01*
X150130651Y-126303565D01*
X150127143Y-126263771D01*
X150127590Y-126213766D01*
X150262376Y-126213766D01*
X150266917Y-126286732D01*
X150279986Y-126342334D01*
X150300756Y-126377861D01*
X150315552Y-126388020D01*
X150353464Y-126395104D01*
X150398527Y-126393007D01*
X150437487Y-126382812D01*
X150447704Y-126377204D01*
X150474659Y-126344538D01*
X150492451Y-126294545D01*
X150500024Y-126233705D01*
X150496325Y-126168497D01*
X150488057Y-126129253D01*
X150464320Y-126083805D01*
X150426849Y-126055396D01*
X150381720Y-126045573D01*
X150335011Y-126055887D01*
X150299132Y-126081112D01*
X150280277Y-126101925D01*
X150269272Y-126122439D01*
X150264026Y-126150203D01*
X150262449Y-126192762D01*
X150262376Y-126213766D01*
X150127590Y-126213766D01*
X150128094Y-126157580D01*
X150145388Y-126070501D01*
X150179029Y-126002530D01*
X150229018Y-125953664D01*
X150295356Y-125923899D01*
X150309601Y-125920448D01*
X150395210Y-125912345D01*
X150470762Y-125926055D01*
G36*
X150853367Y-126114342D02*
X150854555Y-126206563D01*
X150858897Y-126276610D01*
X150867558Y-126327381D01*
X150881704Y-126361772D01*
X150902500Y-126382679D01*
X150931110Y-126393000D01*
X150966535Y-126395636D01*
X151003636Y-126392682D01*
X151031818Y-126381889D01*
X151052243Y-126360360D01*
X151066079Y-126325199D01*
X151074491Y-126273510D01*
X151078643Y-126202394D01*
X151079703Y-126114342D01*
X151079703Y-125918614D01*
X151218020Y-125918614D01*
X151218020Y-126522179D01*
X151148862Y-126522179D01*
X151107170Y-126520489D01*
X151085701Y-126514556D01*
X151079703Y-126503293D01*
X151076091Y-126493261D01*
X151061714Y-126495383D01*
X151032736Y-126509580D01*
X150966319Y-126531480D01*
X150895875Y-126529928D01*
X150828377Y-126506147D01*
X150796233Y-126487362D01*
X150771715Y-126467022D01*
X150753804Y-126441573D01*
X150741479Y-126407458D01*
X150733723Y-126361121D01*
X150729516Y-126299007D01*
X150727840Y-126217561D01*
X150727624Y-126154578D01*
X150727624Y-125918614D01*
X150853367Y-125918614D01*
X150853367Y-126114342D01*
X150853367Y-126114342D01*
G37*
X150853367Y-126114342D02*
X150854555Y-126206563D01*
X150858897Y-126276610D01*
X150867558Y-126327381D01*
X150881704Y-126361772D01*
X150902500Y-126382679D01*
X150931110Y-126393000D01*
X150966535Y-126395636D01*
X151003636Y-126392682D01*
X151031818Y-126381889D01*
X151052243Y-126360360D01*
X151066079Y-126325199D01*
X151074491Y-126273510D01*
X151078643Y-126202394D01*
X151079703Y-126114342D01*
X151079703Y-125918614D01*
X151218020Y-125918614D01*
X151218020Y-126522179D01*
X151148862Y-126522179D01*
X151107170Y-126520489D01*
X151085701Y-126514556D01*
X151079703Y-126503293D01*
X151076091Y-126493261D01*
X151061714Y-126495383D01*
X151032736Y-126509580D01*
X150966319Y-126531480D01*
X150895875Y-126529928D01*
X150828377Y-126506147D01*
X150796233Y-126487362D01*
X150771715Y-126467022D01*
X150753804Y-126441573D01*
X150741479Y-126407458D01*
X150733723Y-126361121D01*
X150729516Y-126299007D01*
X150727840Y-126217561D01*
X150727624Y-126154578D01*
X150727624Y-125918614D01*
X150853367Y-125918614D01*
X150853367Y-126114342D01*
G36*
X152077226Y-125923880D02*
X152150080Y-125954830D01*
X152173027Y-125969895D01*
X152202354Y-125993048D01*
X152220764Y-126011253D01*
X152223961Y-126017183D01*
X152214935Y-126030340D01*
X152191837Y-126052667D01*
X152173344Y-126068250D01*
X152122728Y-126108926D01*
X152082760Y-126075295D01*
X152051874Y-126053584D01*
X152021759Y-126046090D01*
X151987292Y-126047920D01*
X151932561Y-126061528D01*
X151894886Y-126089772D01*
X151871991Y-126135433D01*
X151861597Y-126201289D01*
X151861595Y-126201331D01*
X151862494Y-126274939D01*
X151876463Y-126328946D01*
X151904328Y-126365716D01*
X151923325Y-126378168D01*
X151973776Y-126393673D01*
X152027663Y-126393683D01*
X152074546Y-126378638D01*
X152085644Y-126371287D01*
X152113476Y-126352511D01*
X152135236Y-126349434D01*
X152158704Y-126363409D01*
X152184649Y-126388510D01*
X152225716Y-126430880D01*
X152180121Y-126468464D01*
X152109674Y-126510882D01*
X152030233Y-126531785D01*
X151947215Y-126530272D01*
X151892694Y-126516411D01*
X151828970Y-126482135D01*
X151778005Y-126428212D01*
X151754851Y-126390149D01*
X151736099Y-126335536D01*
X151726715Y-126266369D01*
X151726643Y-126191407D01*
X151735824Y-126119409D01*
X151754199Y-126059137D01*
X151757093Y-126052958D01*
X151799952Y-125992351D01*
X151857979Y-125948224D01*
X151926591Y-125921493D01*
X152001201Y-125913073D01*
X152077226Y-125923880D01*
X152077226Y-125923880D01*
G37*
X152077226Y-125923880D02*
X152150080Y-125954830D01*
X152173027Y-125969895D01*
X152202354Y-125993048D01*
X152220764Y-126011253D01*
X152223961Y-126017183D01*
X152214935Y-126030340D01*
X152191837Y-126052667D01*
X152173344Y-126068250D01*
X152122728Y-126108926D01*
X152082760Y-126075295D01*
X152051874Y-126053584D01*
X152021759Y-126046090D01*
X151987292Y-126047920D01*
X151932561Y-126061528D01*
X151894886Y-126089772D01*
X151871991Y-126135433D01*
X151861597Y-126201289D01*
X151861595Y-126201331D01*
X151862494Y-126274939D01*
X151876463Y-126328946D01*
X151904328Y-126365716D01*
X151923325Y-126378168D01*
X151973776Y-126393673D01*
X152027663Y-126393683D01*
X152074546Y-126378638D01*
X152085644Y-126371287D01*
X152113476Y-126352511D01*
X152135236Y-126349434D01*
X152158704Y-126363409D01*
X152184649Y-126388510D01*
X152225716Y-126430880D01*
X152180121Y-126468464D01*
X152109674Y-126510882D01*
X152030233Y-126531785D01*
X151947215Y-126530272D01*
X151892694Y-126516411D01*
X151828970Y-126482135D01*
X151778005Y-126428212D01*
X151754851Y-126390149D01*
X151736099Y-126335536D01*
X151726715Y-126266369D01*
X151726643Y-126191407D01*
X151735824Y-126119409D01*
X151754199Y-126059137D01*
X151757093Y-126052958D01*
X151799952Y-125992351D01*
X151857979Y-125948224D01*
X151926591Y-125921493D01*
X152001201Y-125913073D01*
X152077226Y-125923880D01*
G36*
X152537898Y-125916457D02*
X152570096Y-125924279D01*
X152631825Y-125952921D01*
X152684610Y-125996667D01*
X152721141Y-126049117D01*
X152726160Y-126060893D01*
X152733045Y-126091740D01*
X152737864Y-126137371D01*
X152739505Y-126183492D01*
X152739505Y-126270693D01*
X152557178Y-126270693D01*
X152481979Y-126270978D01*
X152429003Y-126272704D01*
X152395325Y-126277181D01*
X152378020Y-126285720D01*
X152374163Y-126299630D01*
X152380829Y-126320222D01*
X152392770Y-126344315D01*
X152426080Y-126384525D01*
X152472368Y-126404558D01*
X152528944Y-126403905D01*
X152593031Y-126382101D01*
X152648417Y-126355193D01*
X152694375Y-126391532D01*
X152740333Y-126427872D01*
X152697096Y-126467819D01*
X152639374Y-126505563D01*
X152568386Y-126528320D01*
X152492029Y-126534688D01*
X152418199Y-126523268D01*
X152406287Y-126519393D01*
X152341399Y-126485506D01*
X152293130Y-126434986D01*
X152260465Y-126366325D01*
X152242385Y-126278014D01*
X152242175Y-126276121D01*
X152240556Y-126179878D01*
X152247100Y-126145542D01*
X152374852Y-126145542D01*
X152386584Y-126150822D01*
X152418438Y-126154867D01*
X152465397Y-126157176D01*
X152495154Y-126157525D01*
X152550648Y-126157306D01*
X152585346Y-126155916D01*
X152603601Y-126152251D01*
X152609766Y-126145210D01*
X152608195Y-126133690D01*
X152606878Y-126129233D01*
X152584382Y-126087355D01*
X152549003Y-126053604D01*
X152517780Y-126038773D01*
X152476301Y-126039668D01*
X152434269Y-126058164D01*
X152399012Y-126088786D01*
X152377854Y-126126062D01*
X152374852Y-126145542D01*
X152247100Y-126145542D01*
X152256690Y-126095229D01*
X152288698Y-126024191D01*
X152334701Y-125968779D01*
X152392821Y-125931009D01*
X152461180Y-125912896D01*
X152537898Y-125916457D01*
X152537898Y-125916457D01*
G37*
X152537898Y-125916457D02*
X152570096Y-125924279D01*
X152631825Y-125952921D01*
X152684610Y-125996667D01*
X152721141Y-126049117D01*
X152726160Y-126060893D01*
X152733045Y-126091740D01*
X152737864Y-126137371D01*
X152739505Y-126183492D01*
X152739505Y-126270693D01*
X152557178Y-126270693D01*
X152481979Y-126270978D01*
X152429003Y-126272704D01*
X152395325Y-126277181D01*
X152378020Y-126285720D01*
X152374163Y-126299630D01*
X152380829Y-126320222D01*
X152392770Y-126344315D01*
X152426080Y-126384525D01*
X152472368Y-126404558D01*
X152528944Y-126403905D01*
X152593031Y-126382101D01*
X152648417Y-126355193D01*
X152694375Y-126391532D01*
X152740333Y-126427872D01*
X152697096Y-126467819D01*
X152639374Y-126505563D01*
X152568386Y-126528320D01*
X152492029Y-126534688D01*
X152418199Y-126523268D01*
X152406287Y-126519393D01*
X152341399Y-126485506D01*
X152293130Y-126434986D01*
X152260465Y-126366325D01*
X152242385Y-126278014D01*
X152242175Y-126276121D01*
X152240556Y-126179878D01*
X152247100Y-126145542D01*
X152374852Y-126145542D01*
X152386584Y-126150822D01*
X152418438Y-126154867D01*
X152465397Y-126157176D01*
X152495154Y-126157525D01*
X152550648Y-126157306D01*
X152585346Y-126155916D01*
X152603601Y-126152251D01*
X152609766Y-126145210D01*
X152608195Y-126133690D01*
X152606878Y-126129233D01*
X152584382Y-126087355D01*
X152549003Y-126053604D01*
X152517780Y-126038773D01*
X152476301Y-126039668D01*
X152434269Y-126058164D01*
X152399012Y-126088786D01*
X152377854Y-126126062D01*
X152374852Y-126145542D01*
X152247100Y-126145542D01*
X152256690Y-126095229D01*
X152288698Y-126024191D01*
X152334701Y-125968779D01*
X152392821Y-125931009D01*
X152461180Y-125912896D01*
X152537898Y-125916457D01*
G36*
X149105988Y-125929002D02*
X149137283Y-125943950D01*
X149167591Y-125965541D01*
X149190682Y-125990391D01*
X149207500Y-126022087D01*
X149218994Y-126064214D01*
X149226109Y-126120358D01*
X149229793Y-126194106D01*
X149230992Y-126289044D01*
X149231011Y-126298985D01*
X149231287Y-126522179D01*
X149092970Y-126522179D01*
X149092970Y-126316418D01*
X149092872Y-126240189D01*
X149092191Y-126184939D01*
X149090349Y-126146501D01*
X149086767Y-126120706D01*
X149080868Y-126103384D01*
X149072073Y-126090368D01*
X149059820Y-126077507D01*
X149016953Y-126049873D01*
X148970157Y-126044745D01*
X148925576Y-126062217D01*
X148910072Y-126075221D01*
X148898690Y-126087447D01*
X148890519Y-126100540D01*
X148885026Y-126118615D01*
X148881680Y-126145787D01*
X148879949Y-126186170D01*
X148879303Y-126243879D01*
X148879208Y-126314132D01*
X148879208Y-126522179D01*
X148740891Y-126522179D01*
X148740891Y-125918614D01*
X148810050Y-125918614D01*
X148851572Y-125920256D01*
X148872994Y-125926087D01*
X148879205Y-125937461D01*
X148879208Y-125937798D01*
X148882090Y-125948938D01*
X148894801Y-125947674D01*
X148920074Y-125935434D01*
X148977395Y-125917424D01*
X149042963Y-125915421D01*
X149105988Y-125929002D01*
X149105988Y-125929002D01*
G37*
X149105988Y-125929002D02*
X149137283Y-125943950D01*
X149167591Y-125965541D01*
X149190682Y-125990391D01*
X149207500Y-126022087D01*
X149218994Y-126064214D01*
X149226109Y-126120358D01*
X149229793Y-126194106D01*
X149230992Y-126289044D01*
X149231011Y-126298985D01*
X149231287Y-126522179D01*
X149092970Y-126522179D01*
X149092970Y-126316418D01*
X149092872Y-126240189D01*
X149092191Y-126184939D01*
X149090349Y-126146501D01*
X149086767Y-126120706D01*
X149080868Y-126103384D01*
X149072073Y-126090368D01*
X149059820Y-126077507D01*
X149016953Y-126049873D01*
X148970157Y-126044745D01*
X148925576Y-126062217D01*
X148910072Y-126075221D01*
X148898690Y-126087447D01*
X148890519Y-126100540D01*
X148885026Y-126118615D01*
X148881680Y-126145787D01*
X148879949Y-126186170D01*
X148879303Y-126243879D01*
X148879208Y-126314132D01*
X148879208Y-126522179D01*
X148740891Y-126522179D01*
X148740891Y-125918614D01*
X148810050Y-125918614D01*
X148851572Y-125920256D01*
X148872994Y-125926087D01*
X148879205Y-125937461D01*
X148879208Y-125937798D01*
X148882090Y-125948938D01*
X148894801Y-125947674D01*
X148920074Y-125935434D01*
X148977395Y-125917424D01*
X149042963Y-125915421D01*
X149105988Y-125929002D01*
G36*
X151659460Y-125918030D02*
X151702711Y-125931245D01*
X151730558Y-125947941D01*
X151739629Y-125961145D01*
X151737132Y-125976797D01*
X151720931Y-126001385D01*
X151707232Y-126018800D01*
X151678992Y-126050283D01*
X151657775Y-126063529D01*
X151639688Y-126062664D01*
X151586035Y-126049010D01*
X151546630Y-126049630D01*
X151514632Y-126065104D01*
X151503890Y-126074161D01*
X151469505Y-126106027D01*
X151469505Y-126522179D01*
X151331188Y-126522179D01*
X151331188Y-125918614D01*
X151400347Y-125918614D01*
X151441869Y-125920256D01*
X151463291Y-125926087D01*
X151469502Y-125937461D01*
X151469505Y-125937798D01*
X151472439Y-125949713D01*
X151485704Y-125948159D01*
X151504084Y-125939563D01*
X151542046Y-125923568D01*
X151572872Y-125913945D01*
X151612536Y-125911478D01*
X151659460Y-125918030D01*
X151659460Y-125918030D01*
G37*
X151659460Y-125918030D02*
X151702711Y-125931245D01*
X151730558Y-125947941D01*
X151739629Y-125961145D01*
X151737132Y-125976797D01*
X151720931Y-126001385D01*
X151707232Y-126018800D01*
X151678992Y-126050283D01*
X151657775Y-126063529D01*
X151639688Y-126062664D01*
X151586035Y-126049010D01*
X151546630Y-126049630D01*
X151514632Y-126065104D01*
X151503890Y-126074161D01*
X151469505Y-126106027D01*
X151469505Y-126522179D01*
X151331188Y-126522179D01*
X151331188Y-125918614D01*
X151400347Y-125918614D01*
X151441869Y-125920256D01*
X151463291Y-125926087D01*
X151469502Y-125937461D01*
X151469505Y-125937798D01*
X151472439Y-125949713D01*
X151485704Y-125948159D01*
X151504084Y-125939563D01*
X151542046Y-125923568D01*
X151572872Y-125913945D01*
X151612536Y-125911478D01*
X151659460Y-125918030D01*
G36*
X150236964Y-121750018D02*
X150293812Y-122051570D01*
X150713338Y-122224512D01*
X150964984Y-122053395D01*
X151035458Y-122005750D01*
X151099163Y-121963210D01*
X151153126Y-121927715D01*
X151194373Y-121901210D01*
X151219934Y-121885636D01*
X151226895Y-121882278D01*
X151239435Y-121890914D01*
X151266231Y-121914792D01*
X151304280Y-121950859D01*
X151350579Y-121996067D01*
X151402123Y-122047364D01*
X151455909Y-122101701D01*
X151508935Y-122156028D01*
X151558195Y-122207295D01*
X151600687Y-122252451D01*
X151633407Y-122288446D01*
X151653351Y-122312230D01*
X151658119Y-122320190D01*
X151651257Y-122334865D01*
X151632020Y-122367014D01*
X151602430Y-122413492D01*
X151564510Y-122471156D01*
X151520282Y-122536860D01*
X151494654Y-122574336D01*
X151447941Y-122642768D01*
X151406432Y-122704520D01*
X151372140Y-122756519D01*
X151347080Y-122795692D01*
X151333264Y-122818965D01*
X151331188Y-122823855D01*
X151335895Y-122837755D01*
X151348723Y-122870150D01*
X151367738Y-122916485D01*
X151391003Y-122972206D01*
X151416584Y-123032758D01*
X151442545Y-123093586D01*
X151466950Y-123150136D01*
X151487863Y-123197852D01*
X151503349Y-123232181D01*
X151511472Y-123248568D01*
X151511952Y-123249212D01*
X151524707Y-123252341D01*
X151558677Y-123259321D01*
X151610340Y-123269467D01*
X151676176Y-123282092D01*
X151752664Y-123296509D01*
X151797290Y-123304823D01*
X151879021Y-123320384D01*
X151952843Y-123335192D01*
X152015021Y-123348436D01*
X152061822Y-123359305D01*
X152089509Y-123366989D01*
X152095074Y-123369427D01*
X152100526Y-123385930D01*
X152104924Y-123423200D01*
X152108272Y-123476880D01*
X152110574Y-123542612D01*
X152111832Y-123616037D01*
X152112048Y-123692796D01*
X152111227Y-123768532D01*
X152109371Y-123838886D01*
X152106482Y-123899500D01*
X152102565Y-123946016D01*
X152097622Y-123974075D01*
X152094657Y-123979916D01*
X152076934Y-123986917D01*
X152039381Y-123996927D01*
X151986964Y-124008769D01*
X151924652Y-124021267D01*
X151902900Y-124025310D01*
X151798024Y-124044520D01*
X151715180Y-124059991D01*
X151651630Y-124072337D01*
X151604637Y-124082173D01*
X151571463Y-124090114D01*
X151549371Y-124096776D01*
X151535624Y-124102773D01*
X151527484Y-124108719D01*
X151526345Y-124109894D01*
X151514977Y-124128826D01*
X151497635Y-124165669D01*
X151476050Y-124215913D01*
X151451954Y-124275046D01*
X151427079Y-124338556D01*
X151403157Y-124401932D01*
X151381919Y-124460662D01*
X151365097Y-124510235D01*
X151354422Y-124546139D01*
X151351627Y-124563862D01*
X151351860Y-124564483D01*
X151361331Y-124578970D01*
X151382818Y-124610844D01*
X151414063Y-124656789D01*
X151452807Y-124713485D01*
X151496793Y-124777617D01*
X151509319Y-124795842D01*
X151553984Y-124861914D01*
X151593288Y-124922200D01*
X151625088Y-124973235D01*
X151647245Y-125011560D01*
X151657617Y-125033711D01*
X151658119Y-125036432D01*
X151649405Y-125050736D01*
X151625325Y-125079072D01*
X151588976Y-125118396D01*
X151543453Y-125165661D01*
X151491852Y-125217823D01*
X151437267Y-125271835D01*
X151382794Y-125324653D01*
X151331529Y-125373231D01*
X151286567Y-125414523D01*
X151251004Y-125445485D01*
X151227935Y-125463070D01*
X151221554Y-125465941D01*
X151206699Y-125459178D01*
X151176286Y-125440939D01*
X151135268Y-125414297D01*
X151103709Y-125392852D01*
X151046525Y-125353503D01*
X150978806Y-125307171D01*
X150910880Y-125260913D01*
X150874361Y-125236155D01*
X150750752Y-125152547D01*
X150646991Y-125208650D01*
X150599720Y-125233228D01*
X150559523Y-125252331D01*
X150532326Y-125263227D01*
X150525402Y-125264743D01*
X150517077Y-125253549D01*
X150500654Y-125221917D01*
X150477357Y-125172765D01*
X150448414Y-125109010D01*
X150415050Y-125033571D01*
X150378491Y-124949364D01*
X150339964Y-124859308D01*
X150300694Y-124766321D01*
X150261908Y-124673320D01*
X150224830Y-124583223D01*
X150190689Y-124498948D01*
X150160708Y-124423413D01*
X150136116Y-124359534D01*
X150118136Y-124310231D01*
X150107997Y-124278421D01*
X150106366Y-124267496D01*
X150119291Y-124253561D01*
X150147589Y-124230940D01*
X150185346Y-124204333D01*
X150188515Y-124202228D01*
X150286100Y-124124114D01*
X150364786Y-124032982D01*
X150423891Y-123931745D01*
X150462732Y-123823318D01*
X150480628Y-123710614D01*
X150476897Y-123596548D01*
X150450857Y-123484034D01*
X150401825Y-123375985D01*
X150387400Y-123352345D01*
X150312369Y-123256887D01*
X150223730Y-123180232D01*
X150124549Y-123122780D01*
X150017895Y-123084929D01*
X149906836Y-123067078D01*
X149794439Y-123069625D01*
X149683773Y-123092970D01*
X149577906Y-123137510D01*
X149479905Y-123203645D01*
X149449590Y-123230487D01*
X149372438Y-123314512D01*
X149316218Y-123402966D01*
X149277653Y-123502115D01*
X149256174Y-123600303D01*
X149250872Y-123710697D01*
X149268552Y-123821640D01*
X149307419Y-123929381D01*
X149365677Y-124030169D01*
X149441531Y-124120256D01*
X149533183Y-124195892D01*
X149545228Y-124203864D01*
X149583389Y-124229974D01*
X149612399Y-124252595D01*
X149626268Y-124267039D01*
X149626469Y-124267496D01*
X149623492Y-124283121D01*
X149611689Y-124318582D01*
X149592286Y-124370962D01*
X149566512Y-124437345D01*
X149535591Y-124514814D01*
X149500751Y-124600450D01*
X149463217Y-124691337D01*
X149424217Y-124784559D01*
X149384977Y-124877197D01*
X149346724Y-124966335D01*
X149310683Y-125049055D01*
X149278083Y-125122441D01*
X149250148Y-125183575D01*
X149228105Y-125229541D01*
X149213182Y-125257421D01*
X149207172Y-125264743D01*
X149188809Y-125259041D01*
X149154448Y-125243749D01*
X149110016Y-125221599D01*
X149085583Y-125208650D01*
X148981822Y-125152547D01*
X148858213Y-125236155D01*
X148795114Y-125278987D01*
X148726030Y-125326122D01*
X148661293Y-125370503D01*
X148628866Y-125392852D01*
X148583259Y-125423477D01*
X148544640Y-125447747D01*
X148518048Y-125462587D01*
X148509410Y-125465724D01*
X148496839Y-125457261D01*
X148469016Y-125433636D01*
X148428639Y-125397302D01*
X148378405Y-125350711D01*
X148321012Y-125296317D01*
X148284714Y-125261392D01*
X148221210Y-125198996D01*
X148166327Y-125143188D01*
X148122286Y-125096354D01*
X148091305Y-125060882D01*
X148075602Y-125039161D01*
X148074095Y-125034752D01*
X148081086Y-125017985D01*
X148100406Y-124984082D01*
X148129909Y-124936476D01*
X148167455Y-124878599D01*
X148210900Y-124813884D01*
X148223255Y-124795842D01*
X148268273Y-124730267D01*
X148308660Y-124671228D01*
X148342160Y-124622042D01*
X148366514Y-124586028D01*
X148379464Y-124566502D01*
X148380715Y-124564483D01*
X148378844Y-124548922D01*
X148368913Y-124514709D01*
X148352653Y-124466355D01*
X148331795Y-124408371D01*
X148308073Y-124345270D01*
X148283216Y-124281563D01*
X148258958Y-124221761D01*
X148237029Y-124170376D01*
X148219162Y-124131919D01*
X148207087Y-124110902D01*
X148206229Y-124109894D01*
X148198846Y-124103888D01*
X148186375Y-124097948D01*
X148166080Y-124091460D01*
X148135222Y-124083809D01*
X148091066Y-124074380D01*
X148030874Y-124062559D01*
X147951907Y-124047729D01*
X147851430Y-124029277D01*
X147829675Y-124025310D01*
X147765198Y-124012853D01*
X147708989Y-124000666D01*
X147666013Y-123989926D01*
X147641240Y-123981809D01*
X147637918Y-123979916D01*
X147632444Y-123963138D01*
X147627994Y-123925645D01*
X147624572Y-123871794D01*
X147622181Y-123805944D01*
X147620823Y-123732453D01*
X147620501Y-123655680D01*
X147621219Y-123579983D01*
X147622979Y-123509720D01*
X147625784Y-123449250D01*
X147629638Y-123402930D01*
X147634543Y-123375119D01*
X147637500Y-123369427D01*
X147653963Y-123363686D01*
X147691449Y-123354345D01*
X147746225Y-123342215D01*
X147814555Y-123328107D01*
X147892706Y-123312830D01*
X147935284Y-123304823D01*
X148016071Y-123289721D01*
X148088113Y-123276040D01*
X148147889Y-123264467D01*
X148191879Y-123255687D01*
X148216561Y-123250387D01*
X148220623Y-123249212D01*
X148227489Y-123235965D01*
X148242002Y-123204057D01*
X148262229Y-123158047D01*
X148286234Y-123102492D01*
X148312082Y-123041953D01*
X148337840Y-122980986D01*
X148361573Y-122924151D01*
X148381346Y-122876006D01*
X148395224Y-122841110D01*
X148401274Y-122824021D01*
X148401386Y-122823274D01*
X148394528Y-122809793D01*
X148375302Y-122778770D01*
X148345728Y-122733289D01*
X148307827Y-122676432D01*
X148263620Y-122611283D01*
X148237921Y-122573862D01*
X148191093Y-122505247D01*
X148149501Y-122442952D01*
X148115175Y-122390129D01*
X148090143Y-122349927D01*
X148076435Y-122325500D01*
X148074456Y-122320024D01*
X148082966Y-122307278D01*
X148106493Y-122280063D01*
X148142032Y-122241428D01*
X148186577Y-122194423D01*
X148237123Y-122142095D01*
X148290664Y-122087495D01*
X148344195Y-122033670D01*
X148394711Y-121983670D01*
X148439206Y-121940543D01*
X148474675Y-121907339D01*
X148498113Y-121887106D01*
X148505954Y-121882278D01*
X148518720Y-121889067D01*
X148549256Y-121908142D01*
X148594590Y-121937561D01*
X148651756Y-121975381D01*
X148717784Y-122019661D01*
X148767590Y-122053395D01*
X149019236Y-122224512D01*
X149228999Y-122138041D01*
X149438763Y-122051570D01*
X149495611Y-121750018D01*
X149552460Y-121448466D01*
X150180115Y-121448466D01*
X150236964Y-121750018D01*
X150236964Y-121750018D01*
G37*
X150236964Y-121750018D02*
X150293812Y-122051570D01*
X150713338Y-122224512D01*
X150964984Y-122053395D01*
X151035458Y-122005750D01*
X151099163Y-121963210D01*
X151153126Y-121927715D01*
X151194373Y-121901210D01*
X151219934Y-121885636D01*
X151226895Y-121882278D01*
X151239435Y-121890914D01*
X151266231Y-121914792D01*
X151304280Y-121950859D01*
X151350579Y-121996067D01*
X151402123Y-122047364D01*
X151455909Y-122101701D01*
X151508935Y-122156028D01*
X151558195Y-122207295D01*
X151600687Y-122252451D01*
X151633407Y-122288446D01*
X151653351Y-122312230D01*
X151658119Y-122320190D01*
X151651257Y-122334865D01*
X151632020Y-122367014D01*
X151602430Y-122413492D01*
X151564510Y-122471156D01*
X151520282Y-122536860D01*
X151494654Y-122574336D01*
X151447941Y-122642768D01*
X151406432Y-122704520D01*
X151372140Y-122756519D01*
X151347080Y-122795692D01*
X151333264Y-122818965D01*
X151331188Y-122823855D01*
X151335895Y-122837755D01*
X151348723Y-122870150D01*
X151367738Y-122916485D01*
X151391003Y-122972206D01*
X151416584Y-123032758D01*
X151442545Y-123093586D01*
X151466950Y-123150136D01*
X151487863Y-123197852D01*
X151503349Y-123232181D01*
X151511472Y-123248568D01*
X151511952Y-123249212D01*
X151524707Y-123252341D01*
X151558677Y-123259321D01*
X151610340Y-123269467D01*
X151676176Y-123282092D01*
X151752664Y-123296509D01*
X151797290Y-123304823D01*
X151879021Y-123320384D01*
X151952843Y-123335192D01*
X152015021Y-123348436D01*
X152061822Y-123359305D01*
X152089509Y-123366989D01*
X152095074Y-123369427D01*
X152100526Y-123385930D01*
X152104924Y-123423200D01*
X152108272Y-123476880D01*
X152110574Y-123542612D01*
X152111832Y-123616037D01*
X152112048Y-123692796D01*
X152111227Y-123768532D01*
X152109371Y-123838886D01*
X152106482Y-123899500D01*
X152102565Y-123946016D01*
X152097622Y-123974075D01*
X152094657Y-123979916D01*
X152076934Y-123986917D01*
X152039381Y-123996927D01*
X151986964Y-124008769D01*
X151924652Y-124021267D01*
X151902900Y-124025310D01*
X151798024Y-124044520D01*
X151715180Y-124059991D01*
X151651630Y-124072337D01*
X151604637Y-124082173D01*
X151571463Y-124090114D01*
X151549371Y-124096776D01*
X151535624Y-124102773D01*
X151527484Y-124108719D01*
X151526345Y-124109894D01*
X151514977Y-124128826D01*
X151497635Y-124165669D01*
X151476050Y-124215913D01*
X151451954Y-124275046D01*
X151427079Y-124338556D01*
X151403157Y-124401932D01*
X151381919Y-124460662D01*
X151365097Y-124510235D01*
X151354422Y-124546139D01*
X151351627Y-124563862D01*
X151351860Y-124564483D01*
X151361331Y-124578970D01*
X151382818Y-124610844D01*
X151414063Y-124656789D01*
X151452807Y-124713485D01*
X151496793Y-124777617D01*
X151509319Y-124795842D01*
X151553984Y-124861914D01*
X151593288Y-124922200D01*
X151625088Y-124973235D01*
X151647245Y-125011560D01*
X151657617Y-125033711D01*
X151658119Y-125036432D01*
X151649405Y-125050736D01*
X151625325Y-125079072D01*
X151588976Y-125118396D01*
X151543453Y-125165661D01*
X151491852Y-125217823D01*
X151437267Y-125271835D01*
X151382794Y-125324653D01*
X151331529Y-125373231D01*
X151286567Y-125414523D01*
X151251004Y-125445485D01*
X151227935Y-125463070D01*
X151221554Y-125465941D01*
X151206699Y-125459178D01*
X151176286Y-125440939D01*
X151135268Y-125414297D01*
X151103709Y-125392852D01*
X151046525Y-125353503D01*
X150978806Y-125307171D01*
X150910880Y-125260913D01*
X150874361Y-125236155D01*
X150750752Y-125152547D01*
X150646991Y-125208650D01*
X150599720Y-125233228D01*
X150559523Y-125252331D01*
X150532326Y-125263227D01*
X150525402Y-125264743D01*
X150517077Y-125253549D01*
X150500654Y-125221917D01*
X150477357Y-125172765D01*
X150448414Y-125109010D01*
X150415050Y-125033571D01*
X150378491Y-124949364D01*
X150339964Y-124859308D01*
X150300694Y-124766321D01*
X150261908Y-124673320D01*
X150224830Y-124583223D01*
X150190689Y-124498948D01*
X150160708Y-124423413D01*
X150136116Y-124359534D01*
X150118136Y-124310231D01*
X150107997Y-124278421D01*
X150106366Y-124267496D01*
X150119291Y-124253561D01*
X150147589Y-124230940D01*
X150185346Y-124204333D01*
X150188515Y-124202228D01*
X150286100Y-124124114D01*
X150364786Y-124032982D01*
X150423891Y-123931745D01*
X150462732Y-123823318D01*
X150480628Y-123710614D01*
X150476897Y-123596548D01*
X150450857Y-123484034D01*
X150401825Y-123375985D01*
X150387400Y-123352345D01*
X150312369Y-123256887D01*
X150223730Y-123180232D01*
X150124549Y-123122780D01*
X150017895Y-123084929D01*
X149906836Y-123067078D01*
X149794439Y-123069625D01*
X149683773Y-123092970D01*
X149577906Y-123137510D01*
X149479905Y-123203645D01*
X149449590Y-123230487D01*
X149372438Y-123314512D01*
X149316218Y-123402966D01*
X149277653Y-123502115D01*
X149256174Y-123600303D01*
X149250872Y-123710697D01*
X149268552Y-123821640D01*
X149307419Y-123929381D01*
X149365677Y-124030169D01*
X149441531Y-124120256D01*
X149533183Y-124195892D01*
X149545228Y-124203864D01*
X149583389Y-124229974D01*
X149612399Y-124252595D01*
X149626268Y-124267039D01*
X149626469Y-124267496D01*
X149623492Y-124283121D01*
X149611689Y-124318582D01*
X149592286Y-124370962D01*
X149566512Y-124437345D01*
X149535591Y-124514814D01*
X149500751Y-124600450D01*
X149463217Y-124691337D01*
X149424217Y-124784559D01*
X149384977Y-124877197D01*
X149346724Y-124966335D01*
X149310683Y-125049055D01*
X149278083Y-125122441D01*
X149250148Y-125183575D01*
X149228105Y-125229541D01*
X149213182Y-125257421D01*
X149207172Y-125264743D01*
X149188809Y-125259041D01*
X149154448Y-125243749D01*
X149110016Y-125221599D01*
X149085583Y-125208650D01*
X148981822Y-125152547D01*
X148858213Y-125236155D01*
X148795114Y-125278987D01*
X148726030Y-125326122D01*
X148661293Y-125370503D01*
X148628866Y-125392852D01*
X148583259Y-125423477D01*
X148544640Y-125447747D01*
X148518048Y-125462587D01*
X148509410Y-125465724D01*
X148496839Y-125457261D01*
X148469016Y-125433636D01*
X148428639Y-125397302D01*
X148378405Y-125350711D01*
X148321012Y-125296317D01*
X148284714Y-125261392D01*
X148221210Y-125198996D01*
X148166327Y-125143188D01*
X148122286Y-125096354D01*
X148091305Y-125060882D01*
X148075602Y-125039161D01*
X148074095Y-125034752D01*
X148081086Y-125017985D01*
X148100406Y-124984082D01*
X148129909Y-124936476D01*
X148167455Y-124878599D01*
X148210900Y-124813884D01*
X148223255Y-124795842D01*
X148268273Y-124730267D01*
X148308660Y-124671228D01*
X148342160Y-124622042D01*
X148366514Y-124586028D01*
X148379464Y-124566502D01*
X148380715Y-124564483D01*
X148378844Y-124548922D01*
X148368913Y-124514709D01*
X148352653Y-124466355D01*
X148331795Y-124408371D01*
X148308073Y-124345270D01*
X148283216Y-124281563D01*
X148258958Y-124221761D01*
X148237029Y-124170376D01*
X148219162Y-124131919D01*
X148207087Y-124110902D01*
X148206229Y-124109894D01*
X148198846Y-124103888D01*
X148186375Y-124097948D01*
X148166080Y-124091460D01*
X148135222Y-124083809D01*
X148091066Y-124074380D01*
X148030874Y-124062559D01*
X147951907Y-124047729D01*
X147851430Y-124029277D01*
X147829675Y-124025310D01*
X147765198Y-124012853D01*
X147708989Y-124000666D01*
X147666013Y-123989926D01*
X147641240Y-123981809D01*
X147637918Y-123979916D01*
X147632444Y-123963138D01*
X147627994Y-123925645D01*
X147624572Y-123871794D01*
X147622181Y-123805944D01*
X147620823Y-123732453D01*
X147620501Y-123655680D01*
X147621219Y-123579983D01*
X147622979Y-123509720D01*
X147625784Y-123449250D01*
X147629638Y-123402930D01*
X147634543Y-123375119D01*
X147637500Y-123369427D01*
X147653963Y-123363686D01*
X147691449Y-123354345D01*
X147746225Y-123342215D01*
X147814555Y-123328107D01*
X147892706Y-123312830D01*
X147935284Y-123304823D01*
X148016071Y-123289721D01*
X148088113Y-123276040D01*
X148147889Y-123264467D01*
X148191879Y-123255687D01*
X148216561Y-123250387D01*
X148220623Y-123249212D01*
X148227489Y-123235965D01*
X148242002Y-123204057D01*
X148262229Y-123158047D01*
X148286234Y-123102492D01*
X148312082Y-123041953D01*
X148337840Y-122980986D01*
X148361573Y-122924151D01*
X148381346Y-122876006D01*
X148395224Y-122841110D01*
X148401274Y-122824021D01*
X148401386Y-122823274D01*
X148394528Y-122809793D01*
X148375302Y-122778770D01*
X148345728Y-122733289D01*
X148307827Y-122676432D01*
X148263620Y-122611283D01*
X148237921Y-122573862D01*
X148191093Y-122505247D01*
X148149501Y-122442952D01*
X148115175Y-122390129D01*
X148090143Y-122349927D01*
X148076435Y-122325500D01*
X148074456Y-122320024D01*
X148082966Y-122307278D01*
X148106493Y-122280063D01*
X148142032Y-122241428D01*
X148186577Y-122194423D01*
X148237123Y-122142095D01*
X148290664Y-122087495D01*
X148344195Y-122033670D01*
X148394711Y-121983670D01*
X148439206Y-121940543D01*
X148474675Y-121907339D01*
X148498113Y-121887106D01*
X148505954Y-121882278D01*
X148518720Y-121889067D01*
X148549256Y-121908142D01*
X148594590Y-121937561D01*
X148651756Y-121975381D01*
X148717784Y-122019661D01*
X148767590Y-122053395D01*
X149019236Y-122224512D01*
X149228999Y-122138041D01*
X149438763Y-122051570D01*
X149495611Y-121750018D01*
X149552460Y-121448466D01*
X150180115Y-121448466D01*
X150236964Y-121750018D01*
D14*
X153381429Y-121262857D02*
X153381429Y-122120000D01*
X153324287Y-122291429D01*
X153210001Y-122405714D01*
X153038572Y-122462857D01*
X152924287Y-122462857D01*
X153952858Y-122462857D02*
X153952858Y-121262857D01*
X154238573Y-121262857D01*
X154410001Y-121320000D01*
X154524287Y-121434286D01*
X154581430Y-121548571D01*
X154638573Y-121777143D01*
X154638573Y-121948571D01*
X154581430Y-122177143D01*
X154524287Y-122291429D01*
X154410001Y-122405714D01*
X154238573Y-122462857D01*
X153952858Y-122462857D01*
X155381430Y-121891429D02*
X155381430Y-122462857D01*
X154981430Y-121262857D02*
X155381430Y-121891429D01*
X155781430Y-121262857D01*
X156181429Y-122005714D02*
X157095715Y-122005714D01*
X157895715Y-121262857D02*
X158010000Y-121262857D01*
X158124286Y-121320000D01*
X158181429Y-121377143D01*
X158238572Y-121491429D01*
X158295715Y-121720000D01*
X158295715Y-122005714D01*
X158238572Y-122234286D01*
X158181429Y-122348571D01*
X158124286Y-122405714D01*
X158010000Y-122462857D01*
X157895715Y-122462857D01*
X157781429Y-122405714D01*
X157724286Y-122348571D01*
X157667143Y-122234286D01*
X157610000Y-122005714D01*
X157610000Y-121720000D01*
X157667143Y-121491429D01*
X157724286Y-121377143D01*
X157781429Y-121320000D01*
X157895715Y-121262857D01*
X158981429Y-121777143D02*
X158867143Y-121720000D01*
X158810000Y-121662857D01*
X158752857Y-121548571D01*
X158752857Y-121491429D01*
X158810000Y-121377143D01*
X158867143Y-121320000D01*
X158981429Y-121262857D01*
X159210000Y-121262857D01*
X159324286Y-121320000D01*
X159381429Y-121377143D01*
X159438572Y-121491429D01*
X159438572Y-121548571D01*
X159381429Y-121662857D01*
X159324286Y-121720000D01*
X159210000Y-121777143D01*
X158981429Y-121777143D01*
X158867143Y-121834286D01*
X158810000Y-121891429D01*
X158752857Y-122005714D01*
X158752857Y-122234286D01*
X158810000Y-122348571D01*
X158867143Y-122405714D01*
X158981429Y-122462857D01*
X159210000Y-122462857D01*
X159324286Y-122405714D01*
X159381429Y-122348571D01*
X159438572Y-122234286D01*
X159438572Y-122005714D01*
X159381429Y-121891429D01*
X159324286Y-121834286D01*
X159210000Y-121777143D01*
M02*
