G04 #@! TF.FileFunction,Copper,L2,Bot,Signal*
%FSLAX46Y46*%
G04 Gerber Fmt 4.6, Leading zero omitted, Abs format (unit mm)*
G04 Created by KiCad (PCBNEW 4.0.5) date 02/14/17 20:50:27*
%MOMM*%
%LPD*%
G01*
G04 APERTURE LIST*
%ADD10C,0.100000*%
%ADD11R,2.032000X1.727200*%
%ADD12O,2.032000X1.727200*%
%ADD13R,1.727200X2.032000*%
%ADD14O,1.727200X2.032000*%
%ADD15C,0.600000*%
%ADD16C,0.508000*%
%ADD17C,0.250000*%
%ADD18C,0.254000*%
G04 APERTURE END LIST*
D10*
D11*
X142240000Y-104140000D03*
D12*
X142240000Y-106680000D03*
X142240000Y-109220000D03*
X142240000Y-111760000D03*
X142240000Y-114300000D03*
X142240000Y-116840000D03*
X142240000Y-119380000D03*
X142240000Y-121920000D03*
X142240000Y-124460000D03*
X142240000Y-127000000D03*
X142240000Y-129540000D03*
X142240000Y-132080000D03*
D13*
X151130000Y-132080000D03*
D14*
X153670000Y-132080000D03*
X156210000Y-132080000D03*
X158750000Y-132080000D03*
X161290000Y-132080000D03*
D11*
X170027600Y-104140000D03*
D12*
X170027600Y-106680000D03*
X170027600Y-109220000D03*
X170027600Y-111760000D03*
X170027600Y-114300000D03*
X170027600Y-116840000D03*
X170027600Y-119380000D03*
X170027600Y-121920000D03*
X170027600Y-124460000D03*
X170027600Y-127000000D03*
X170027600Y-129540000D03*
X170027600Y-132080000D03*
D15*
X156210000Y-110490000D03*
D16*
X151130000Y-132080000D02*
X151130000Y-113664080D01*
X151130000Y-113664080D02*
X160654080Y-104140000D01*
X160654080Y-104140000D02*
X170027600Y-104140000D01*
D17*
X170027600Y-104140000D02*
X170180000Y-104140000D01*
D18*
X153670000Y-132080000D02*
X153670000Y-112022118D01*
X153670000Y-112022118D02*
X159012118Y-106680000D01*
X159012118Y-106680000D02*
X170027600Y-106680000D01*
D17*
X170027600Y-106680000D02*
X170180000Y-106680000D01*
D16*
X156210000Y-132080000D02*
X156210000Y-110490000D01*
D18*
X158750000Y-132080000D02*
X158750000Y-125425200D01*
X158750000Y-125425200D02*
X169875200Y-114300000D01*
X169875200Y-114300000D02*
X170027600Y-114300000D01*
D17*
X170180000Y-114300000D02*
X170027600Y-114300000D01*
D18*
X161290000Y-132080000D02*
X161290000Y-125425200D01*
X161290000Y-125425200D02*
X169875200Y-116840000D01*
X169875200Y-116840000D02*
X170027600Y-116840000D01*
D17*
X170180000Y-116840000D02*
X170027600Y-116840000D01*
M02*
